<?xml version="1.0" encoding="UTF-8" standalone="no"?>
<svg
   xmlns:dc="http://purl.org/dc/elements/1.1/"
   xmlns:cc="http://creativecommons.org/ns#"
   xmlns:rdf="http://www.w3.org/1999/02/22-rdf-syntax-ns#"
   xmlns:svg="http://www.w3.org/2000/svg"
   xmlns="http://www.w3.org/2000/svg"
   xmlns:sodipodi="http://sodipodi.sourceforge.net/DTD/sodipodi-0.dtd"
   xmlns:inkscape="http://www.inkscape.org/namespaces/inkscape"
   version="1.1"
   viewBox="0 0 500 500"
   stroke-miterlimit="10"
   id="svg115"
   sodipodi:docname="AComputingNode.svg"
   width="500"
   height="500"
   style="fill:none;stroke:none;stroke-linecap:square;stroke-miterlimit:10"
   inkscape:version="0.92.4 (5da689c313, 2019-01-14)">
  <metadata
     id="metadata121">
    <rdf:RDF>
      <cc:Work
         rdf:about="">
        <dc:format>image/svg+xml</dc:format>
        <dc:type
           rdf:resource="http://purl.org/dc/dcmitype/StillImage" />
        <dc:title></dc:title>
      </cc:Work>
    </rdf:RDF>
  </metadata>
  <defs
     id="defs119" />
  <sodipodi:namedview
     pagecolor="#ffffff"
     bordercolor="#666666"
     borderopacity="1"
     objecttolerance="10"
     gridtolerance="10"
     guidetolerance="10"
     inkscape:pageopacity="0"
     inkscape:pageshadow="2"
     inkscape:window-width="1920"
     inkscape:window-height="1000"
     id="namedview117"
     showgrid="false"
     inkscape:zoom="0.43541667"
     inkscape:cx="480"
     inkscape:cy="270"
     inkscape:window-x="-11"
     inkscape:window-y="-11"
     inkscape:window-maximized="1"
     inkscape:current-layer="svg115" />
  <clipPath
     id="gafd4f95526_0_0.0">
    <path
       d="M 0,0 H 960 V 540 H 0 Z"
       id="path2"
       inkscape:connector-curvature="0"
       style="clip-rule:nonzero" />
  </clipPath>
  <g
     id="g1035"
     transform="translate(0.717839,-33.192908)">
    <path
       d="m 163.10498,277.55118 h 305.7953 v 118.07873 h -305.7953 z"
       id="path7"
       inkscape:connector-curvature="0"
       style="fill:#000000;fill-opacity:0;fill-rule:evenodd" />
    <path
       d="m 163.10498,277.55118 h 305.7953 v 118.07873 h -305.7953 z"
       id="path9"
       inkscape:connector-curvature="0"
       style="fill-rule:evenodd;stroke:#000000;stroke-width:2;stroke-linecap:butt;stroke-linejoin:round" />
    <path
       d="m 175.16536,289.3727 h 83.937 v 38.61417 h -83.937 z"
       id="path11"
       inkscape:connector-curvature="0"
       style="fill:#000000;fill-opacity:0;fill-rule:evenodd" />
    <path
       d="m 175.16536,289.3727 h 83.937 v 38.61417 h -83.937 z"
       id="path13"
       inkscape:connector-curvature="0"
       style="fill-rule:evenodd;stroke:#000000;stroke-width:2;stroke-linecap:butt;stroke-linejoin:round" />
    <path
       d="m 206.60709,310.08792 1.39062,0.34375 q -0.4375,1.70312 -1.57812,2.60937 -1.125,0.89063 -2.76563,0.89063 -1.6875,0 -2.75,-0.6875 -1.0625,-0.6875 -1.625,-2 -0.54687,-1.3125 -0.54687,-2.8125 0,-1.64063 0.625,-2.85938 0.625,-1.21875 1.78125,-1.84375 1.15625,-0.64062 2.54687,-0.64062 1.5625,0 2.64063,0.8125 1.07812,0.79687 1.5,2.25 l -1.375,0.3125 q -0.35938,-1.14063 -1.0625,-1.65625 -0.6875,-0.53125 -1.73438,-0.53125 -1.21875,0 -2.03125,0.57812 -0.8125,0.57813 -1.14062,1.5625 -0.32813,0.96875 -0.32813,2.01563 0,1.32812 0.39063,2.32812 0.39062,1 1.21875,1.5 0.82812,0.48438 1.78125,0.48438 1.17187,0 1.96875,-0.67188 0.8125,-0.67187 1.09375,-1.98437 z m 3.0999,3.67187 v -10.48437 h 3.96875 q 1.04687,0 1.59375,0.0937 0.76562,0.125 1.28125,0.48437 0.53125,0.35938 0.84375,1.01563 0.32812,0.65625 0.32812,1.4375 0,1.32812 -0.85937,2.26562 -0.84375,0.92188 -3.07813,0.92188 h -2.6875 v 4.26562 z m 1.39062,-5.5 h 2.71875 q 1.34375,0 1.90625,-0.5 0.5625,-0.5 0.5625,-1.40625 0,-0.67187 -0.32812,-1.14062 -0.32813,-0.46875 -0.875,-0.60938 -0.35938,-0.0937 -1.29688,-0.0937 h -2.6875 z m 15.27561,-4.98437 h 1.39062 v 6.04687 q 0,1.59375 -0.35937,2.53125 -0.35938,0.92188 -1.29688,1.5 -0.9375,0.57813 -2.45312,0.57813 -1.46875,0 -2.40625,-0.5 -0.9375,-0.51563 -1.34375,-1.46875 -0.39063,-0.96875 -0.39063,-2.64063 v -6.04687 h 1.39063 v 6.04687 q 0,1.375 0.25,2.01563 0.25,0.64062 0.85937,1 0.625,0.34375 1.53125,0.34375 1.53125,0 2.17188,-0.6875 0.65625,-0.70313 0.65625,-2.67188 z m 3.02177,8.21875 1.26563,-0.20313 q 0.10937,0.76563 0.59375,1.17188 0.5,0.40625 1.375,0.40625 0.89062,0 1.3125,-0.35938 0.4375,-0.35937 0.4375,-0.84375 0,-0.4375 -0.375,-0.6875 -0.26563,-0.17187 -1.3125,-0.4375 -1.42188,-0.35937 -1.96875,-0.60937 -0.54688,-0.26563 -0.82813,-0.73438 -0.28125,-0.46875 -0.28125,-1.01562 0,-0.51563 0.21875,-0.9375 0.23438,-0.4375 0.64063,-0.73438 0.29687,-0.21875 0.8125,-0.35937 0.53125,-0.15625 1.125,-0.15625 0.89062,0 1.5625,0.26562 0.67187,0.25 1,0.6875 0.32812,0.4375 0.4375,1.17188 l -1.25,0.17187 q -0.0937,-0.57812 -0.5,-0.90625 -0.40625,-0.34375 -1.15625,-0.34375 -0.89063,0 -1.28125,0.29688 -0.375,0.29687 -0.375,0.6875 0,0.25 0.15625,0.45312 0.15625,0.20313 0.5,0.34375 0.1875,0.0781 1.14062,0.32813 1.35938,0.35937 1.89063,0.59375 0.54687,0.23437 0.85937,0.6875 0.3125,0.4375 0.3125,1.09375 0,0.64062 -0.375,1.21875 -0.375,0.5625 -1.09375,0.875 -0.70312,0.3125 -1.59375,0.3125 -1.48437,0 -2.26562,-0.60938 -0.76563,-0.625 -0.98438,-1.82812 z"
       id="path15"
       inkscape:connector-curvature="0"
       style="fill:#000000;fill-rule:nonzero" />
    <path
       d="m 273.7139,289.3727 h 83.93701 v 38.61417 H 273.7139 Z"
       id="path17"
       inkscape:connector-curvature="0"
       style="fill:#000000;fill-opacity:0;fill-rule:evenodd" />
    <path
       d="m 273.7139,289.3727 h 83.93701 v 38.61417 H 273.7139 Z"
       id="path19"
       inkscape:connector-curvature="0"
       style="fill-rule:evenodd;stroke:#000000;stroke-width:2;stroke-linecap:butt;stroke-linejoin:round" />
    <path
       d="m 300.55435,313.7598 v -10.48438 h 4.64062 q 1.40625,0 2.14063,0.28125 0.73437,0.28125 1.17187,1 0.4375,0.70313 0.4375,1.57813 0,1.10937 -0.73437,1.875 -0.71875,0.76562 -2.23438,0.98437 0.5625,0.25 0.84375,0.51563 0.60938,0.5625 1.15625,1.39062 l 1.8125,2.85938 h -1.73437 l -1.39063,-2.1875 q -0.60937,-0.9375 -1,-1.4375 -0.39062,-0.5 -0.70312,-0.70313 -0.3125,-0.20312 -0.64063,-0.28125 -0.23437,-0.0469 -0.76562,-0.0469 h -1.60938 v 4.65625 z m 1.39062,-5.85938 h 2.98438 q 0.9375,0 1.46875,-0.1875 0.54687,-0.20312 0.82812,-0.64062 0.28125,-0.4375 0.28125,-0.9375 0,-0.75 -0.54687,-1.21875 -0.53125,-0.48438 -1.70313,-0.48438 h -3.3125 z m 8.02176,5.85938 4.01563,-10.48438 h 1.5 l 4.29687,10.48438 h -1.57812 l -1.23438,-3.17188 h -4.375 l -1.15625,3.17188 z m 3.01563,-4.3125 h 3.5625 l -1.09375,-2.90625 q -0.5,-1.3125 -0.75,-2.17188 -0.20313,1.01563 -0.5625,2 z m 7.86935,4.3125 v -10.48438 h 2.07813 l 2.48437,7.42188 q 0.34375,1.03125 0.5,1.54687 0.1875,-0.5625 0.5625,-1.67187 l 2.51563,-7.29688 h 1.85937 v 10.48438 h -1.32812 v -8.78125 l -3.04688,8.78125 h -1.26562 l -3.03125,-8.9375 v 8.9375 z"
       id="path21"
       inkscape:connector-curvature="0"
       style="fill:#000000;fill-rule:nonzero" />
    <path
       d="m 175.16536,344.35434 h 83.937 v 38.61417 h -83.937 z"
       id="path23"
       inkscape:connector-curvature="0"
       style="fill:#000000;fill-opacity:0;fill-rule:evenodd" />
    <path
       d="m 175.16536,344.35434 h 83.937 v 38.61417 h -83.937 z"
       id="path25"
       inkscape:connector-curvature="0"
       style="fill-rule:evenodd;stroke:#000000;stroke-width:2;stroke-linecap:butt;stroke-linejoin:round" />
    <path
       d="m 203.63667,364.63205 v -1.23438 l 4.4375,-0.0156 v 3.90625 q -1.03125,0.8125 -2.125,1.21875 -1.07813,0.40625 -2.21875,0.40625 -1.54688,0 -2.8125,-0.65625 -1.26563,-0.65625 -1.90625,-1.90625 -0.64063,-1.26563 -0.64063,-2.8125 0,-1.53125 0.64063,-2.84375 0.64062,-1.32813 1.84375,-1.96875 1.20312,-0.65625 2.76562,-0.65625 1.14063,0 2.0625,0.375 0.92188,0.35937 1.4375,1.03125 0.53125,0.65625 0.79688,1.70312 l -1.25,0.34375 q -0.23438,-0.79687 -0.59375,-1.25 -0.34375,-0.46875 -1,-0.73437 -0.65625,-0.28125 -1.4375,-0.28125 -0.95313,0 -1.65625,0.29687 -0.6875,0.28125 -1.125,0.76563 -0.42188,0.46875 -0.65625,1.03125 -0.39063,0.96875 -0.39063,2.10937 0,1.40625 0.46875,2.35938 0.48438,0.9375 1.40625,1.39062 0.9375,0.45313 1.96875,0.45313 0.90625,0 1.76563,-0.34375 0.85937,-0.34375 1.29687,-0.73438 v -1.95312 z m 6.47823,4.10937 v -10.48437 h 3.96875 q 1.04687,0 1.59375,0.0937 0.76562,0.125 1.28125,0.48437 0.53125,0.35938 0.84375,1.01563 0.32812,0.65625 0.32812,1.4375 0,1.32812 -0.85937,2.26562 -0.84375,0.92188 -3.07813,0.92188 h -2.6875 v 4.26562 z m 1.39062,-5.5 h 2.71875 q 1.34375,0 1.90625,-0.5 0.5625,-0.5 0.5625,-1.40625 0,-0.67187 -0.32812,-1.14062 -0.32813,-0.46875 -0.875,-0.60938 -0.35938,-0.0937 -1.29688,-0.0937 h -2.6875 z m 15.2756,-4.98437 h 1.39063 v 6.04687 q 0,1.59375 -0.35938,2.53125 -0.35937,0.92188 -1.29687,1.5 -0.9375,0.57813 -2.45313,0.57813 -1.46875,0 -2.40625,-0.5 -0.9375,-0.51563 -1.34375,-1.46875 -0.39062,-0.96875 -0.39062,-2.64063 v -6.04687 h 1.39062 v 6.04687 q 0,1.375 0.25,2.01563 0.25,0.64062 0.85938,1 0.625,0.34375 1.53125,0.34375 1.53125,0 2.17187,-0.6875 0.65625,-0.70313 0.65625,-2.67188 z m 3.02178,8.21875 1.26562,-0.20313 q 0.10938,0.76563 0.59375,1.17188 0.5,0.40625 1.375,0.40625 0.89063,0 1.3125,-0.35938 0.4375,-0.35937 0.4375,-0.84375 0,-0.4375 -0.375,-0.6875 -0.26562,-0.17187 -1.3125,-0.4375 -1.42187,-0.35937 -1.96875,-0.60937 -0.54687,-0.26563 -0.82812,-0.73438 -0.28125,-0.46875 -0.28125,-1.01562 0,-0.51563 0.21875,-0.9375 0.23437,-0.4375 0.64062,-0.73438 0.29688,-0.21875 0.8125,-0.35937 0.53125,-0.15625 1.125,-0.15625 0.89063,0 1.5625,0.26562 0.67188,0.25 1,0.6875 0.32813,0.4375 0.4375,1.17188 l -1.25,0.17187 q -0.0937,-0.57812 -0.5,-0.90625 -0.40625,-0.34375 -1.15625,-0.34375 -0.89062,0 -1.28125,0.29688 -0.375,0.29687 -0.375,0.6875 0,0.25 0.15625,0.45312 0.15625,0.20313 0.5,0.34375 0.1875,0.0781 1.14063,0.32813 1.35937,0.35937 1.89062,0.59375 0.54688,0.23437 0.85938,0.6875 0.3125,0.4375 0.3125,1.09375 0,0.64062 -0.375,1.21875 -0.375,0.5625 -1.09375,0.875 -0.70313,0.3125 -1.59375,0.3125 -1.48438,0 -2.26563,-0.60938 -0.76562,-0.625 -0.98437,-1.82812 z"
       id="path27"
       inkscape:connector-curvature="0"
       style="fill:#000000;fill-rule:nonzero" />
    <path
       d="m 273.7139,344.35434 h 182.48819 v 38.61417 H 273.7139 Z"
       id="path29"
       inkscape:connector-curvature="0"
       style="fill:#000000;fill-opacity:0;fill-rule:evenodd" />
    <path
       d="m 273.7139,344.35434 h 182.48819 v 38.61417 H 273.7139 Z"
       id="path31"
       inkscape:connector-curvature="0"
       style="fill-rule:evenodd;stroke:#000000;stroke-width:2;stroke-linecap:butt;stroke-linejoin:round" />
    <path
       d="m 307.4388,368.74142 v -10.48438 h 1.4375 l 5.5,8.23438 v -8.23438 h 1.32813 v 10.48438 h -1.42188 l -5.5,-8.25 v 8.25 z m 10.63113,0 v -10.48438 h 7.59375 v 1.23438 h -6.20312 v 3.20312 h 5.79687 v 1.23438 h -5.79687 v 3.57812 h 6.4375 v 1.23438 z m 12.41623,0 v -9.25 h -3.45312 v -1.23438 h 8.3125 v 1.23438 h -3.46875 v 9.25 z m 8.12451,0 -2.79687,-10.48438 h 1.4375 l 1.59375,6.875 q 0.25,1.07813 0.4375,2.14063 0.40625,-1.6875 0.46875,-1.9375 l 2,-7.07813 h 1.67187 l 1.5,5.29688 q 0.57813,1.98437 0.82813,3.71875 0.20312,-1 0.51562,-2.28125 l 1.64063,-6.73438 h 1.40625 l -2.875,10.48438 h -1.34375 l -2.20313,-8 q -0.28125,-1 -0.34375,-1.21875 -0.15625,0.71875 -0.29687,1.21875 l -2.23438,8 z m 11.56763,-5.10938 q 0,-2.60937 1.40625,-4.07812 1.40625,-1.48438 3.625,-1.48438 1.45313,0 2.60938,0.70313 1.17187,0.6875 1.78125,1.92187 0.60937,1.23438 0.60937,2.8125 0,1.59375 -0.64062,2.85938 -0.64063,1.26562 -1.82813,1.90625 -1.17187,0.64062 -2.54687,0.64062 -1.46875,0 -2.64063,-0.70312 -1.17187,-0.71875 -1.78125,-1.95313 -0.59375,-1.25 -0.59375,-2.625 z m 1.4375,0.0156 q 0,1.90625 1.01563,3 1.01562,1.07812 2.5625,1.07812 1.5625,0 2.57812,-1.09375 1.01563,-1.10937 1.01563,-3.125 0,-1.28125 -0.4375,-2.23437 -0.4375,-0.96875 -1.26563,-1.48438 -0.82812,-0.53125 -1.875,-0.53125 -1.46875,0 -2.53125,1.01563 -1.0625,1.01562 -1.0625,3.375 z m 10.41574,5.09375 v -10.48438 h 4.64063 q 1.40625,0 2.14062,0.28125 0.73438,0.28125 1.17188,1 0.4375,0.70313 0.4375,1.57813 0,1.10937 -0.73438,1.875 -0.71875,0.76562 -2.23437,0.98437 0.5625,0.25 0.84375,0.51563 0.60937,0.5625 1.15625,1.39062 l 1.8125,2.85938 h -1.73438 l -1.39062,-2.1875 q -0.60938,-0.9375 -1,-1.4375 -0.39063,-0.5 -0.70313,-0.70313 -0.3125,-0.20312 -0.64062,-0.28125 -0.23438,-0.0469 -0.76563,-0.0469 h -1.60937 v 4.65625 z m 1.39063,-5.85938 h 2.98437 q 0.9375,0 1.46875,-0.1875 0.54688,-0.20312 0.82813,-0.64062 0.28125,-0.4375 0.28125,-0.9375 0,-0.75 -0.54688,-1.21875 -0.53125,-0.48438 -1.70312,-0.48438 h -3.3125 z m 9.11551,5.85938 v -10.48438 h 1.39062 v 5.20313 l 5.20313,-5.20313 h 1.875 l -4.39063,4.25 4.59375,6.23438 h -1.82812 l -3.75,-5.3125 -1.70313,1.67187 v 3.64063 z m 12.76947,0.17187 3.04687,-10.84375 h 1.03125 l -3.04687,10.84375 z m 16.15957,-10.65625 h 1.3906 v 6.04688 q 0,1.59375 -0.35938,2.53125 -0.35937,0.92187 -1.29684,1.5 -0.9375,0.57812 -2.45313,0.57812 -1.46875,0 -2.40625,-0.5 -0.9375,-0.51562 -1.34375,-1.46875 -0.39062,-0.96875 -0.39062,-2.64062 v -6.04688 h 1.39062 v 6.04688 q 0,1.375 0.25,2.01562 0.25,0.64063 0.85938,1 0.625,0.34375 1.53125,0.34375 1.53125,0 2.17187,-0.6875 0.65625,-0.70312 0.65625,-2.67187 z m 3.22489,7.10938 1.3125,-0.10938 q 0.0937,0.78125 0.42187,1.29688 0.34375,0.5 1.0625,0.8125 0.71875,0.3125 1.60938,0.3125 0.79687,0 1.40625,-0.23438 0.60937,-0.23437 0.90625,-0.64062 0.29687,-0.42188 0.29687,-0.90625 0,-0.5 -0.29687,-0.85938 -0.28125,-0.375 -0.9375,-0.625 -0.42188,-0.17187 -1.875,-0.51562 -1.4375,-0.34375 -2.01563,-0.65625 -0.75,-0.39063 -1.125,-0.96875 -0.35937,-0.59375 -0.35937,-1.3125 0,-0.79688 0.4375,-1.48438 0.45312,-0.6875 1.3125,-1.04687 0.875,-0.35938 1.9375,-0.35938 1.17187,0 2.0625,0.375 0.89062,0.375 1.35937,1.10938 0.48438,0.73437 0.51563,1.65625 l -1.32813,0.0937 q -0.10937,-1 -0.73437,-1.5 -0.60938,-0.51563 -1.8125,-0.51563 -1.26563,0 -1.84375,0.46875 -0.57813,0.46875 -0.57813,1.10938 0,0.5625 0.42188,0.9375 0.39062,0.35937 2.07812,0.75 1.70313,0.375 2.32813,0.65625 0.92187,0.42187 1.35937,1.07812 0.4375,0.64063 0.4375,1.48438 0,0.84375 -0.48437,1.59375 -0.48438,0.73437 -1.39063,1.14062 -0.89062,0.40625 -2.01562,0.40625 -1.42188,0 -2.39063,-0.40625 -0.95312,-0.42187 -1.5,-1.25 -0.54687,-0.82812 -0.57812,-1.89062 z m 10.19748,3.375 v -10.48438 h 3.9375 q 1.20312,0 1.92187,0.3125 0.73438,0.3125 1.14063,0.98438 0.40625,0.65625 0.40625,1.375 0,0.67187 -0.375,1.26562 -0.35938,0.59375 -1.09375,0.96875 0.95312,0.28125 1.46875,0.95313 0.51562,0.67187 0.51562,1.57812 0,0.75 -0.3125,1.39063 -0.3125,0.625 -0.78125,0.96875 -0.45312,0.34375 -1.14062,0.51562 -0.6875,0.17188 -1.6875,0.17188 z m 1.39062,-6.07813 h 2.26563 q 0.92187,0 1.3125,-0.125 0.53125,-0.15625 0.79687,-0.51562 0.28125,-0.375 0.28125,-0.92188 0,-0.53125 -0.25,-0.92187 -0.25,-0.39063 -0.71875,-0.53125 -0.46875,-0.15625 -1.59375,-0.15625 h -2.09375 z m 0,4.84375 h 2.60938 q 0.67187,0 0.9375,-0.0469 0.48437,-0.0937 0.79687,-0.29688 0.32813,-0.20312 0.53125,-0.57812 0.21875,-0.39063 0.21875,-0.89063 0,-0.57812 -0.3125,-1.01562 -0.29687,-0.4375 -0.82812,-0.60938 -0.53125,-0.17187 -1.53125,-0.17187 h -2.42188 z"
       id="path33"
       inkscape:connector-curvature="0"
       style="fill:#000000;fill-rule:nonzero" />
    <path
       d="m 372.26248,289.3727 h 83.93698 v 38.61417 h -83.93698 z"
       id="path35"
       inkscape:connector-curvature="0"
       style="fill:#000000;fill-opacity:0;fill-rule:evenodd" />
    <path
       d="m 372.26248,289.3727 h 83.93698 v 38.61417 h -83.93698 z"
       id="path37"
       inkscape:connector-curvature="0"
       style="fill-rule:evenodd;stroke:#000000;stroke-width:2;stroke-linecap:butt;stroke-linejoin:round" />
    <path
       d="m 399.8195,310.3848 1.3125,-0.10938 q 0.0937,0.78125 0.42187,1.29688 0.34375,0.5 1.0625,0.8125 0.71875,0.3125 1.60938,0.3125 0.79687,0 1.40625,-0.23438 0.60937,-0.23437 0.90625,-0.64062 0.29687,-0.42188 0.29687,-0.90625 0,-0.5 -0.29687,-0.85938 -0.28125,-0.375 -0.9375,-0.625 -0.42188,-0.17187 -1.875,-0.51562 -1.4375,-0.34375 -2.01563,-0.65625 -0.75,-0.39063 -1.125,-0.96875 -0.35937,-0.59375 -0.35937,-1.3125 0,-0.79688 0.4375,-1.48438 0.45312,-0.6875 1.3125,-1.04687 0.875,-0.35938 1.9375,-0.35938 1.17187,0 2.0625,0.375 0.89062,0.375 1.35937,1.10938 0.48438,0.73437 0.51563,1.65625 l -1.32813,0.0937 q -0.10937,-1 -0.73437,-1.5 -0.60938,-0.51563 -1.8125,-0.51563 -1.26563,0 -1.84375,0.46875 -0.57813,0.46875 -0.57813,1.10938 0,0.5625 0.42188,0.9375 0.39062,0.35937 2.07812,0.75 1.70313,0.375 2.32813,0.65625 0.92187,0.42187 1.35937,1.07812 0.4375,0.64063 0.4375,1.48438 0,0.84375 -0.48437,1.59375 -0.48438,0.73437 -1.39063,1.14062 -0.89062,0.40625 -2.01562,0.40625 -1.42188,0 -2.39063,-0.40625 -0.95312,-0.42187 -1.5,-1.25 -0.54687,-0.82812 -0.57812,-1.89062 z m 9.7756,0 1.3125,-0.10938 q 0.0937,0.78125 0.42188,1.29688 0.34375,0.5 1.0625,0.8125 0.71875,0.3125 1.60937,0.3125 0.79688,0 1.40625,-0.23438 0.60938,-0.23437 0.90625,-0.64062 0.29688,-0.42188 0.29688,-0.90625 0,-0.5 -0.29688,-0.85938 -0.28125,-0.375 -0.9375,-0.625 -0.42187,-0.17187 -1.875,-0.51562 -1.4375,-0.34375 -2.01562,-0.65625 -0.75,-0.39063 -1.125,-0.96875 -0.35938,-0.59375 -0.35938,-1.3125 0,-0.79688 0.4375,-1.48438 0.45313,-0.6875 1.3125,-1.04687 0.875,-0.35938 1.9375,-0.35938 1.17188,0 2.0625,0.375 0.89063,0.375 1.35938,1.10938 0.48437,0.73437 0.51562,1.65625 l -1.32812,0.0937 q -0.10938,-1 -0.73438,-1.5 -0.60937,-0.51563 -1.8125,-0.51563 -1.26562,0 -1.84375,0.46875 -0.57812,0.46875 -0.57812,1.10938 0,0.5625 0.42187,0.9375 0.39063,0.35937 2.07813,0.75 1.70312,0.375 2.32812,0.65625 0.92188,0.42187 1.35938,1.07812 0.4375,0.64063 0.4375,1.48438 0,0.84375 -0.48438,1.59375 -0.48437,0.73437 -1.39062,1.14062 -0.89063,0.40625 -2.01563,0.40625 -1.42187,0 -2.39062,-0.40625 -0.95313,-0.42187 -1.5,-1.25 -0.54688,-0.82812 -0.57813,-1.89062 z m 10.24436,3.375 v -10.48438 h 3.625 q 1.21875,0 1.85937,0.14063 0.90625,0.20312 1.54688,0.75 0.82812,0.70312 1.23437,1.79687 0.40625,1.09375 0.40625,2.5 0,1.1875 -0.28125,2.10938 -0.26562,0.92187 -0.70312,1.53125 -0.4375,0.60937 -0.96875,0.95312 -0.51563,0.34375 -1.25,0.53125 -0.71875,0.17188 -1.67188,0.17188 z m 1.39062,-1.23438 h 2.25 q 1.03125,0 1.625,-0.1875 0.59375,-0.20312 0.9375,-0.54687 0.5,-0.5 0.76563,-1.32813 0.28125,-0.84375 0.28125,-2.03125 0,-1.64062 -0.54688,-2.51562 -0.53125,-0.89063 -1.3125,-1.1875 -0.54687,-0.21875 -1.79687,-0.21875 h -2.20313 z"
       id="path39"
       inkscape:connector-curvature="0"
       style="fill:#000000;fill-rule:nonzero" />
    <path
       d="m 162.78477,432.6614 v 0 c 0,4.9184 68.4546,8.90552 152.89763,8.90552 84.44305,0 152.89764,-3.98712 152.89764,-8.90552 v 53.43307 c 0,4.9184 -68.45459,8.90552 -152.89764,8.90552 -84.44302,0 -152.89763,-3.98712 -152.89763,-8.90552 z"
       id="path41"
       inkscape:connector-curvature="0"
       style="fill:#ffffff;fill-rule:evenodd" />
    <path
       d="m 162.78477,432.6614 v 0 c 0,-4.91837 68.4546,-8.90549 152.89763,-8.90549 84.44305,0 152.89764,3.98712 152.89764,8.90549 v 0 c 0,4.9184 -68.45459,8.90552 -152.89764,8.90552 -84.44302,0 -152.89763,-3.98712 -152.89763,-8.90552 z"
       id="path43"
       inkscape:connector-curvature="0"
       style="fill:#ffffff;fill-rule:evenodd" />
    <path
       d="m 468.58005,432.6614 v 0 c 0,4.9184 -68.45459,8.90552 -152.89764,8.90552 -84.44302,0 -152.89763,-3.98712 -152.89763,-8.90552 v 0 c 0,-4.91837 68.45461,-8.90549 152.89763,-8.90549 84.44305,0 152.89764,3.98712 152.89764,8.90549 v 53.43307 c 0,4.9184 -68.45459,8.90552 -152.89764,8.90552 -84.44302,0 -152.89763,-3.98712 -152.89763,-8.90552 V 432.6614"
       id="path45"
       inkscape:connector-curvature="0"
       style="fill:#000000;fill-opacity:0;fill-rule:evenodd" />
    <path
       d="m 468.58005,432.6614 v 0 c 0,4.9184 -68.45459,8.90552 -152.89764,8.90552 -84.44302,0 -152.89763,-3.98712 -152.89763,-8.90552 v 0 c 0,-4.91837 68.45461,-8.90549 152.89763,-8.90549 84.44305,0 152.89764,3.98712 152.89764,8.90549 v 53.43307 c 0,4.9184 -68.45459,8.90552 -152.89764,8.90552 -84.44302,0 -152.89763,-3.98712 -152.89763,-8.90552 V 432.6614"
       id="path47"
       inkscape:connector-curvature="0"
       style="fill-rule:evenodd;stroke:#000000;stroke-width:2;stroke-linecap:butt;stroke-linejoin:round" />
    <path
       d="m 245.9639,466.0632 1.76562,0.45312 q -0.5625,2.17188 -2,3.32813 -1.4375,1.14062 -3.53125,1.14062 -2.15625,0 -3.51562,-0.875 -1.34375,-0.89062 -2.0625,-2.54687 -0.70313,-1.67188 -0.70313,-3.59375 0,-2.07813 0.79688,-3.625 0.79687,-1.5625 2.26562,-2.35938 1.48438,-0.8125 3.25,-0.8125 2,0 3.35938,1.01563 1.375,1.01562 1.90625,2.875 l -1.73438,0.40625 q -0.46875,-1.45313 -1.35937,-2.10938 -0.875,-0.67187 -2.20313,-0.67187 -1.54687,0 -2.57812,0.73437 -1.03125,0.73438 -1.45313,1.98438 -0.42187,1.23437 -0.42187,2.5625 0,1.70312 0.5,2.96875 0.5,1.26562 1.54687,1.90625 1.04688,0.625 2.26563,0.625 1.48437,0 2.51562,-0.85938 1.03125,-0.85937 1.39063,-2.54687 z m 3.86357,4.6875 v -13.35938 h 1.78125 v 11.78125 h 6.56249 v 1.57813 z m 9.92259,-6.5 q 0,-3.32813 1.78125,-5.20313 1.78125,-1.89062 4.60938,-1.89062 1.84375,0 3.32812,0.89062 1.48438,0.875 2.26563,2.46875 0.78125,1.57813 0.78125,3.57813 0,2.03125 -0.82813,3.64062 -0.8125,1.59375 -2.3125,2.42188 -1.5,0.82812 -3.25,0.82812 -1.875,0 -3.35937,-0.90625 -1.48438,-0.92187 -2.25,-2.5 -0.76563,-1.57812 -0.76563,-3.32812 z m 1.8125,0.0156 q 0,2.42188 1.29688,3.8125 1.29687,1.39063 3.26562,1.39063 2,0 3.28125,-1.40625 1.28125,-1.40625 1.28125,-3.98438 0,-1.625 -0.54687,-2.84375 -0.54688,-1.21875 -1.60938,-1.875 -1.0625,-0.67187 -2.375,-0.67187 -1.89062,0 -3.25,1.29687 -1.34375,1.28125 -1.34375,4.28125 z m 21.99579,-6.875 h 1.76563 v 7.71875 q 0,2.01563 -0.45313,3.20313 -0.45312,1.1875 -1.64062,1.9375 -1.1875,0.73437 -3.125,0.73437 -1.875,0 -3.07813,-0.64062 -1.1875,-0.65625 -1.70312,-1.875 -0.5,-1.23438 -0.5,-3.35938 v -7.71875 h 1.76562 v 7.71875 q 0,1.73438 0.3125,2.5625 0.32813,0.8125 1.10938,1.26563 0.79687,0.45312 1.9375,0.45312 1.95312,0 2.78125,-0.89062 0.82812,-0.89063 0.82812,-3.39063 z m 4.70734,13.35938 V 457.3913 h 4.60937 q 1.54688,0 2.375,0.20313 1.14063,0.25 1.95313,0.95312 1.0625,0.89063 1.57812,2.28125 0.53125,1.39063 0.53125,3.17188 0,1.51562 -0.35937,2.70312 -0.35938,1.17188 -0.92188,1.9375 -0.54687,0.76563 -1.20312,1.21875 -0.65625,0.4375 -1.59375,0.67188 -0.9375,0.21875 -2.14063,0.21875 z m 1.76562,-1.57813 h 2.85938 q 1.3125,0 2.0625,-0.23437 0.75,-0.25 1.20312,-0.70313 0.625,-0.625 0.96875,-1.6875 0.35938,-1.0625 0.35938,-2.57812 0,-2.09375 -0.6875,-3.21875 -0.6875,-1.125 -1.67188,-1.5 -0.70312,-0.28125 -2.28125,-0.28125 h -2.8125 z m 16.29688,-2.71875 1.65625,-0.14062 q 0.125,1 0.54687,1.64062 0.4375,0.64063 1.34375,1.04688 0.92188,0.39062 2.0625,0.39062 1,0 1.78125,-0.29687 0.78125,-0.29688 1.15625,-0.8125 0.375,-0.53125 0.375,-1.15625 0,-0.625 -0.375,-1.09375 -0.35937,-0.46875 -1.1875,-0.79688 -0.54687,-0.20312 -2.39062,-0.64062 -1.82813,-0.45313 -2.5625,-0.84375 -0.96875,-0.5 -1.4375,-1.23438 -0.46875,-0.75 -0.46875,-1.67187 0,-1 0.57812,-1.875 0.57813,-0.89063 1.67188,-1.34375 1.10937,-0.45313 2.45312,-0.45313 1.48438,0 2.60938,0.48438 1.14062,0.46875 1.75,1.40625 0.60937,0.92187 0.65625,2.09375 l -1.6875,0.125 q -0.14063,-1.26563 -0.9375,-1.90625 -0.78125,-0.65625 -2.3125,-0.65625 -1.60938,0 -2.34375,0.59375 -0.73438,0.59375 -0.73438,1.42187 0,0.71875 0.53125,1.17188 0.5,0.46875 2.65625,0.96875 2.15625,0.48437 2.95313,0.84375 1.17187,0.53125 1.71875,1.35937 0.5625,0.82813 0.5625,1.90625 0,1.0625 -0.60938,2.01563 -0.60937,0.9375 -1.75,1.46875 -1.14062,0.51562 -2.57812,0.51562 -1.8125,0 -3.04688,-0.53125 -1.21875,-0.53125 -1.92187,-1.59375 -0.6875,-1.0625 -0.71875,-2.40625 z m 16.44357,4.29688 v -11.78125 h -4.40625 v -1.57813 h 10.57813 v 1.57813 h -4.40625 v 11.78125 z m 7.12125,-6.5 q 0,-3.32813 1.78125,-5.20313 1.78125,-1.89062 4.60937,-1.89062 1.84375,0 3.32813,0.89062 1.48437,0.875 2.26562,2.46875 0.78125,1.57813 0.78125,3.57813 0,2.03125 -0.82812,3.64062 -0.8125,1.59375 -2.3125,2.42188 -1.5,0.82812 -3.25,0.82812 -1.875,0 -3.35938,-0.90625 -1.48437,-0.92187 -2.25,-2.5 -0.76562,-1.57812 -0.76562,-3.32812 z m 1.8125,0.0156 q 0,2.42188 1.29687,3.8125 1.29688,1.39063 3.26563,1.39063 2,0 3.28125,-1.40625 1.28125,-1.40625 1.28125,-3.98438 0,-1.625 -0.54688,-2.84375 -0.54687,-1.21875 -1.60937,-1.875 -1.0625,-0.67187 -2.375,-0.67187 -1.89063,0 -3.25,1.29687 -1.34375,1.28125 -1.34375,4.28125 z m 13.26144,6.48438 v -13.35938 h 5.92188 q 1.78125,0 2.70312,0.35938 0.9375,0.35937 1.48438,1.28125 0.5625,0.90625 0.5625,2.01562 0,1.40625 -0.92188,2.39063 -0.92187,0.96875 -2.84375,1.23437 0.70313,0.34375 1.07813,0.67188 0.76562,0.70312 1.45312,1.76562 l 2.32813,3.64063 h -2.21875 l -1.76563,-2.78125 q -0.78125,-1.20313 -1.28125,-1.82813 -0.5,-0.64062 -0.90625,-0.89062 -0.39062,-0.26563 -0.79687,-0.35938 -0.29688,-0.0781 -0.98438,-0.0781 h -2.04687 v 5.9375 z m 1.76563,-7.45313 h 3.79687 q 1.21875,0 1.89063,-0.25 0.6875,-0.26562 1.04687,-0.8125 0.35938,-0.54687 0.35938,-1.1875 0,-0.95312 -0.6875,-1.5625 -0.6875,-0.60937 -2.1875,-0.60937 h -4.21875 z m 10.2073,7.45313 5.125,-13.35938 h 1.90625 l 5.46875,13.35938 h -2.01562 l -1.54688,-4.04688 h -5.59375 l -1.46875,4.04688 z m 3.85938,-5.48438 h 4.53125 l -1.40625,-3.70312 q -0.625,-1.6875 -0.9375,-2.76563 -0.26563,1.28125 -0.71875,2.54688 z m 16.30295,0.25 v -1.57812 h 5.65625 v 4.95312 q -1.29688,1.04688 -2.6875,1.57813 -1.375,0.51562 -2.84375,0.51562 -1.96875,0 -3.57813,-0.84375 -1.60937,-0.84375 -2.42187,-2.4375 -0.8125,-1.59375 -0.8125,-3.5625 0,-1.95312 0.8125,-3.64062 0.8125,-1.6875 2.34375,-2.5 1.53125,-0.82813 3.51562,-0.82813 1.45313,0 2.625,0.46875 1.17188,0.46875 1.82813,1.3125 0.67187,0.82813 1.01562,2.17188 l -1.59375,0.4375 q -0.29687,-1.01563 -0.75,-1.59375 -0.4375,-0.59375 -1.26562,-0.9375 -0.82813,-0.34375 -1.84375,-0.34375 -1.20313,0 -2.09375,0.375 -0.89063,0.35937 -1.4375,0.96875 -0.53125,0.59375 -0.82813,1.3125 -0.51562,1.23437 -0.51562,2.6875 0,1.78125 0.60937,2.98437 0.625,1.20313 1.79688,1.79688 1.17187,0.57812 2.5,0.57812 1.14062,0 2.23437,-0.4375 1.09375,-0.45312 1.65625,-0.95312 v -2.48438 z m 8.29269,5.23438 v -13.35938 h 9.65625 v 1.57813 h -7.875 v 4.09375 h 7.375 v 1.5625 h -7.375 v 4.54687 h 8.1875 v 1.57813 z"
       id="path49"
       inkscape:connector-curvature="0"
       style="fill:#000000;fill-rule:nonzero" />
    <path
       d="M 28.664042,277.55118 H 211.15223 v 42.01575 H 28.664042 Z"
       id="path51"
       inkscape:connector-curvature="0"
       style="fill:#000000;fill-opacity:0;fill-rule:evenodd" />
    <path
       d="m 47.632793,298.50244 h -5.15625 l -1.25,5.96875 h -2.75 l 2.796875,-13.35938 h 2.734375 l -1.0625,5.15625 h 5.15625 l 1.09375,-5.15625 h 2.734375 l -2.78125,13.35938 h -2.75 z m 13.019821,3.01562 h -5.296875 l -1.609375,2.95313 h -2.8125 l 7.546875,-13.35938 h 3.046875 l 2.171875,13.35938 h -2.609375 z m -0.34375,-2.21875 -0.765625,-5.375 -3.234375,5.375 z m 7.879192,5.17188 h -2.765625 l 2.796875,-13.35938 h 5.9375 q 1.53125,0 2.375,0.32813 0.859375,0.3125 1.375,1.15625 0.53125,0.82812 0.53125,2.01562 0,1.70313 -1.03125,2.8125 -1.015625,1.10938 -3.078125,1.375 0.53125,0.46875 1,1.25 0.921875,1.5625 2.046875,4.42188 h -2.953125 q -0.359375,-1.125 -1.390625,-3.53125 -0.5625,-1.28125 -1.203125,-1.73438 -0.390625,-0.26562 -1.375,-0.26562 h -1.109375 z m 1.5625,-7.53125 h 1.46875 q 2.203125,0 2.921875,-0.26563 0.734375,-0.26562 1.140625,-0.82812 0.421875,-0.5625 0.421875,-1.1875 0,-0.73438 -0.59375,-1.09375 -0.375,-0.21875 -1.578125,-0.21875 h -3.03125 z m 9.144821,7.53125 2.796875,-13.35938 h 3.59375 q 1.5,0 1.921875,0.0469 0.828125,0.0781 1.484375,0.34375 0.65625,0.25 1.1875,0.71875 0.53125,0.45312 0.90625,1.10937 0.390625,0.64063 0.59375,1.48438 0.21875,0.84375 0.21875,1.84375 0,2.15625 -0.828125,3.82812 -0.8125,1.67188 -2.0625,2.65625 -0.953125,0.76563 -2.46875,1.125 -0.859375,0.20313 -2.640625,0.20313 z m 3.203125,-2.15625 h 1.390625 q 1.515625,0 2.1875,-0.17188 0.671875,-0.1875 1.25,-0.70312 0.796875,-0.73438 1.359375,-1.96875 0.5625,-1.23438 0.5625,-2.89063 0,-1.42187 -0.46875,-2.14062 -0.453125,-0.71875 -1.125,-0.95313 -0.484375,-0.17187 -1.6875,-0.17187 h -1.59375 z m 22.926068,2.15625 h -2.78125 l -0.29687,-9.76563 -4.875002,9.76563 h -2.828125 l -0.5,-13.35938 h 2.6875 l 0.109375,9.34375 4.593752,-9.34375 h 2.96875 l 0.3125,9.25 4.40625,-9.25 h 2.65625 z m 12.62558,-2.95313 h -5.29687 l -1.60938,2.95313 h -2.8125 l 7.54688,-13.35938 h 3.04687 l 2.17188,13.35938 h -2.60938 z m -0.34375,-2.21875 -0.76562,-5.375 -3.23438,5.375 z m 7.8792,5.17188 h -2.76563 l 2.79688,-13.35938 h 5.93751 q 1.53125,0 2.375,0.32813 0.85937,0.3125 1.375,1.15625 0.53125,0.82812 0.53125,2.01562 0,1.70313 -1.03125,2.8125 -1.01563,1.10938 -3.07813,1.375 0.53125,0.46875 1,1.25 0.92188,1.5625 2.04688,4.42188 h -2.95313 q -0.35937,-1.125 -1.39062,-3.53125 -0.5625,-1.28125 -1.20313,-1.73438 -0.39062,-0.26562 -1.37501,-0.26562 h -1.10937 z m 1.5625,-7.53125 h 1.46876 q 2.20312,0 2.92187,-0.26563 0.73438,-0.26562 1.14063,-0.82812 0.42187,-0.5625 0.42187,-1.1875 0,-0.73438 -0.59375,-1.09375 -0.375,-0.21875 -1.57812,-0.21875 h -3.03126 z m 9.09795,7.53125 2.78125,-13.35938 h 9.90625 l -0.46875,2.23438 h -7.14062 l -0.64063,3.03125 h 6.90625 l -0.45312,2.23437 h -6.92188 l -0.82812,3.625 h 7.76562 l -0.46875,2.23438 z"
       id="path53"
       inkscape:connector-curvature="0"
       style="fill:#000000;fill-rule:nonzero" />
    <path
       d="m 216.67717,262.5958 h 10.60629 v -14.40944 h 21.2126 v 14.40944 h 10.6063 l -21.21259,14.40945 z"
       id="path55"
       inkscape:connector-curvature="0"
       style="fill:#ffffff;fill-rule:evenodd" />
    <path
       d="m 216.67717,262.5958 h 10.60629 v -14.40944 h 21.2126 v 14.40944 h 10.6063 l -21.21259,14.40945 z"
       id="path57"
       inkscape:connector-curvature="0"
       style="fill-rule:evenodd;stroke:#595959;stroke-width:2;stroke-linecap:butt;stroke-linejoin:round" />
    <path
       d="m 364.40683,262.5958 h 10.60629 v 14.40945 h 21.21259 V 262.5958 h 10.60632 l -21.21262,-14.40944 z"
       id="path59"
       inkscape:connector-curvature="0"
       style="fill:#ffffff;fill-rule:evenodd" />
    <path
       d="m 364.40683,262.5958 h 10.60629 v 14.40945 h 21.21259 V 262.5958 h 10.60632 l -21.21262,-14.40944 z"
       id="path61"
       inkscape:connector-curvature="0"
       style="fill-rule:evenodd;stroke:#595959;stroke-width:2;stroke-linecap:butt;stroke-linejoin:round" />
    <path
       d="m 162.78477,209.38583 h 305.7953 V 248 h -305.7953 z"
       id="path63"
       inkscape:connector-curvature="0"
       style="fill:#000000;fill-opacity:0;fill-rule:evenodd" />
    <path
       d="m 162.78477,209.38583 h 305.7953 V 248 h -305.7953 z"
       id="path65"
       inkscape:connector-curvature="0"
       style="fill-rule:evenodd;stroke:#000000;stroke-width:2;stroke-linecap:butt;stroke-linejoin:round" />
    <path
       d="m 241.60185,228.66354 q 0,-2.60938 1.40625,-4.07813 1.40625,-1.48437 3.625,-1.48437 1.45313,0 2.60938,0.70312 1.17187,0.6875 1.78125,1.92188 0.60937,1.23437 0.60937,2.8125 0,1.59375 -0.64062,2.85937 -0.64063,1.26563 -1.82813,1.90625 -1.17187,0.64063 -2.54687,0.64063 -1.46875,0 -2.64063,-0.70313 -1.17187,-0.71875 -1.78125,-1.95312 -0.59375,-1.25 -0.59375,-2.625 z m 1.4375,0.0156 q 0,1.90625 1.01563,3 1.01562,1.07813 2.5625,1.07813 1.5625,0 2.57812,-1.09375 1.01563,-1.10938 1.01563,-3.125 0,-1.28125 -0.4375,-2.23438 -0.4375,-0.96875 -1.26563,-1.48437 -0.82812,-0.53125 -1.875,-0.53125 -1.46875,0 -2.53125,1.01562 -1.0625,1.01563 -1.0625,3.375 z m 10.38448,5.09375 v -10.48437 h 3.96875 q 1.04687,0 1.59375,0.0937 0.76562,0.125 1.28125,0.48437 0.53125,0.35938 0.84375,1.01563 0.32812,0.65625 0.32812,1.4375 0,1.32812 -0.85937,2.26562 -0.84375,0.92188 -3.07813,0.92188 h -2.6875 v 4.26562 z m 1.39062,-5.5 h 2.71875 q 1.34375,0 1.90625,-0.5 0.5625,-0.5 0.5625,-1.40625 0,-0.67187 -0.32812,-1.14062 -0.32813,-0.46875 -0.875,-0.60938 -0.35938,-0.0937 -1.29688,-0.0937 h -2.6875 z m 8.41623,5.5 v -10.48437 h 7.59375 v 1.23437 h -6.20313 v 3.20313 h 5.79688 v 1.23437 h -5.79688 v 3.57813 h 6.4375 v 1.23437 z m 9.7756,0 v -10.48437 h 4.64063 q 1.40625,0 2.14062,0.28125 0.73438,0.28125 1.17188,1 0.4375,0.70312 0.4375,1.57812 0,1.10938 -0.73438,1.875 -0.71875,0.76563 -2.23437,0.98438 0.5625,0.25 0.84375,0.51562 0.60937,0.5625 1.15625,1.39063 l 1.8125,2.85937 h -1.73438 l -1.39062,-2.1875 q -0.60938,-0.9375 -1,-1.4375 -0.39063,-0.5 -0.70313,-0.70312 -0.3125,-0.20313 -0.64062,-0.28125 -0.23438,-0.0469 -0.76563,-0.0469 h -1.60937 v 4.65625 z m 1.39063,-5.85937 h 2.98437 q 0.9375,0 1.46875,-0.1875 0.54688,-0.20313 0.82813,-0.64063 0.28125,-0.4375 0.28125,-0.9375 0,-0.75 -0.54688,-1.21875 -0.53125,-0.48437 -1.70312,-0.48437 h -3.3125 z m 8.02176,5.85937 4.01562,-10.48437 h 1.5 l 4.29691,10.48437 h -1.57816 l -1.23437,-3.17187 h -4.375 l -1.15625,3.17187 z m 3.01562,-4.3125 h 3.5625 l -1.09375,-2.90625 q -0.5,-1.3125 -0.75,-2.17187 -0.20312,1.01562 -0.5625,2 z m 9.48395,4.3125 v -9.25 h -3.45312 v -1.23437 h 8.3125 v 1.23437 h -3.46875 v 9.25 z m 6.51514,0 v -10.48437 h 1.39062 v 10.48437 z m 3.82196,0 v -10.48437 h 1.4375 l 5.5,8.23437 v -8.23437 h 1.32812 v 10.48437 h -1.42187 l -5.5,-8.25 v 8.25 z m 15.52179,-4.10937 v -1.23438 l 4.4375,-0.0156 v 3.90625 q -1.03125,0.8125 -2.125,1.21875 -1.07813,0.40625 -2.21875,0.40625 -1.54688,0 -2.8125,-0.65625 -1.26563,-0.65625 -1.90625,-1.90625 -0.64063,-1.26563 -0.64063,-2.8125 0,-1.53125 0.64063,-2.84375 0.64062,-1.32813 1.84375,-1.96875 1.20312,-0.65625 2.76562,-0.65625 1.14063,0 2.0625,0.375 0.92188,0.35937 1.4375,1.03125 0.53125,0.65625 0.79688,1.70312 l -1.25,0.34375 q -0.23438,-0.79687 -0.59375,-1.25 -0.34375,-0.46875 -1,-0.73437 -0.65625,-0.28125 -1.4375,-0.28125 -0.95313,0 -1.65625,0.29687 -0.6875,0.28125 -1.125,0.76563 -0.42188,0.46875 -0.65625,1.03125 -0.39063,0.96875 -0.39063,2.10937 0,1.40625 0.46875,2.35938 0.48438,0.9375 1.40625,1.39062 0.9375,0.45313 1.96875,0.45313 0.90625,0 1.76563,-0.34375 0.85937,-0.34375 1.29687,-0.73438 v -1.95312 z m 10.08145,0.73437 1.3125,-0.10937 q 0.0937,0.78125 0.42187,1.29687 0.34375,0.5 1.0625,0.8125 0.71875,0.3125 1.60938,0.3125 0.79687,0 1.40625,-0.23437 0.60937,-0.23438 0.90625,-0.64063 0.29687,-0.42187 0.29687,-0.90625 0,-0.5 -0.29687,-0.85937 -0.28125,-0.375 -0.9375,-0.625 -0.42188,-0.17188 -1.875,-0.51563 -1.4375,-0.34375 -2.01563,-0.65625 -0.75,-0.39062 -1.125,-0.96875 -0.35937,-0.59375 -0.35937,-1.3125 0,-0.79687 0.4375,-1.48437 0.45312,-0.6875 1.3125,-1.04688 0.875,-0.35937 1.9375,-0.35937 1.17187,0 2.0625,0.375 0.89062,0.375 1.35937,1.10937 0.48438,0.73438 0.51563,1.65625 l -1.32813,0.0937 q -0.10937,-1 -0.73437,-1.5 -0.60938,-0.51562 -1.8125,-0.51562 -1.26563,0 -1.84375,0.46875 -0.57813,0.46875 -0.57813,1.10937 0,0.5625 0.42188,0.9375 0.39062,0.35938 2.07812,0.75 1.70313,0.375 2.32813,0.65625 0.92187,0.42188 1.35937,1.07813 0.4375,0.64062 0.4375,1.48437 0,0.84375 -0.48437,1.59375 -0.48438,0.73438 -1.39063,1.14063 -0.89062,0.40625 -2.01562,0.40625 -1.42188,0 -2.39063,-0.40625 -0.95312,-0.42188 -1.5,-1.25 -0.54687,-0.82813 -0.57812,-1.89063 z m 13.2131,3.375 v -4.4375 l -4.04687,-6.04687 h 1.6875 l 2.0625,3.15625 q 0.57812,0.89062 1.0625,1.78125 0.48437,-0.82813 1.15625,-1.85938 l 2.03125,-3.07812 h 1.60937 l -4.1875,6.04687 v 4.4375 z m 6.33811,-3.375 1.3125,-0.10937 q 0.0937,0.78125 0.42187,1.29687 0.34375,0.5 1.0625,0.8125 0.71875,0.3125 1.60938,0.3125 0.79687,0 1.40625,-0.23437 0.60937,-0.23438 0.90625,-0.64063 0.29687,-0.42187 0.29687,-0.90625 0,-0.5 -0.29687,-0.85937 -0.28125,-0.375 -0.9375,-0.625 -0.42188,-0.17188 -1.875,-0.51563 -1.4375,-0.34375 -2.01563,-0.65625 -0.75,-0.39062 -1.125,-0.96875 -0.35937,-0.59375 -0.35937,-1.3125 0,-0.79687 0.4375,-1.48437 0.45312,-0.6875 1.3125,-1.04688 0.875,-0.35937 1.9375,-0.35937 1.17187,0 2.0625,0.375 0.89062,0.375 1.35937,1.10937 0.48438,0.73438 0.51563,1.65625 l -1.32813,0.0937 q -0.10937,-1 -0.73437,-1.5 -0.60938,-0.51562 -1.8125,-0.51562 -1.26563,0 -1.84375,0.46875 -0.57813,0.46875 -0.57813,1.10937 0,0.5625 0.42188,0.9375 0.39062,0.35938 2.07812,0.75 1.70313,0.375 2.32813,0.65625 0.92187,0.42188 1.35937,1.07813 0.4375,0.64062 0.4375,1.48437 0,0.84375 -0.48437,1.59375 -0.48438,0.73438 -1.39063,1.14063 -0.89062,0.40625 -2.01562,0.40625 -1.42188,0 -2.39063,-0.40625 -0.95312,-0.42188 -1.5,-1.25 -0.54687,-0.82813 -0.57812,-1.89063 z m 12.91623,3.375 v -9.25 h -3.45313 v -1.23437 h 8.3125 v 1.23437 h -3.46875 v 9.25 z m 6.31198,0 v -10.48437 h 7.59375 v 1.23437 h -6.20313 v 3.20313 h 5.79688 v 1.23437 h -5.79688 v 3.57813 h 6.4375 v 1.23437 z m 9.7131,0 v -10.48437 h 2.07813 l 2.48437,7.42187 q 0.34375,1.03125 0.5,1.54688 0.1875,-0.5625 0.5625,-1.67188 l 2.51563,-7.29687 h 1.85937 v 10.48437 h -1.32812 v -8.78125 l -3.04688,8.78125 h -1.26562 l -3.03125,-8.9375 v 8.9375 z"
       id="path67"
       inkscape:connector-curvature="0"
       style="fill:#000000;fill-rule:nonzero" />
    <path
       d="m 216.67717,192.5958 h 10.60629 v -14.40944 h 21.2126 v 14.40944 h 10.6063 l -21.21259,14.40945 z"
       id="path69"
       inkscape:connector-curvature="0"
       style="fill:#ffffff;fill-rule:evenodd" />
    <path
       d="m 216.67717,192.5958 h 10.60629 v -14.40944 h 21.2126 v 14.40944 h 10.6063 l -21.21259,14.40945 z"
       id="path71"
       inkscape:connector-curvature="0"
       style="fill-rule:evenodd;stroke:#595959;stroke-width:2;stroke-linecap:butt;stroke-linejoin:round" />
    <path
       d="m 364.40683,192.5958 h 10.60629 v 14.40945 h 21.21259 V 192.5958 h 10.60632 l -21.21262,-14.40944 z"
       id="path73"
       inkscape:connector-curvature="0"
       style="fill:#ffffff;fill-rule:evenodd" />
    <path
       d="m 364.40683,192.5958 h 10.60629 v 14.40945 h 21.21259 V 192.5958 h 10.60632 l -21.21262,-14.40944 z"
       id="path75"
       inkscape:connector-curvature="0"
       style="fill-rule:evenodd;stroke:#595959;stroke-width:2;stroke-linecap:butt;stroke-linejoin:round" />
    <path
       d="m 162.78477,139.38583 h 305.7953 V 178 h -305.7953 z"
       id="path77"
       inkscape:connector-curvature="0"
       style="fill:#000000;fill-opacity:0;fill-rule:evenodd" />
    <path
       d="m 162.78477,139.38583 h 305.7953 V 178 h -305.7953 z"
       id="path79"
       inkscape:connector-curvature="0"
       style="fill-rule:evenodd;stroke:#000000;stroke-width:2;stroke-linecap:butt;stroke-linejoin:round" />
    <path
       d="m 224.463,163.77292 4.01562,-10.48438 h 1.5 l 4.29688,10.48438 h -1.57813 l -1.23437,-3.17188 h -4.375 l -1.15625,3.17188 z m 3.01562,-4.3125 h 3.5625 l -1.09375,-2.90625 q -0.5,-1.3125 -0.75,-2.17188 -0.20312,1.01563 -0.5625,2 z m 7.90061,4.3125 v -10.48438 h 3.96875 q 1.04687,0 1.59375,0.0937 0.76562,0.125 1.28125,0.48438 0.53125,0.35937 0.84375,1.01562 0.32812,0.65625 0.32812,1.4375 0,1.32813 -0.85937,2.26563 -0.84375,0.92187 -3.07813,0.92187 h -2.6875 v 4.26563 z m 1.39062,-5.5 h 2.71875 q 1.34375,0 1.90625,-0.5 0.5625,-0.5 0.5625,-1.40625 0,-0.67188 -0.32812,-1.14063 -0.32813,-0.46875 -0.875,-0.60937 -0.35938,-0.0937 -1.29688,-0.0937 h -2.6875 z m 8.38498,5.5 v -10.48438 h 3.96875 q 1.04688,0 1.59375,0.0937 0.76563,0.125 1.28125,0.48438 0.53125,0.35937 0.84375,1.01562 0.32813,0.65625 0.32813,1.4375 0,1.32813 -0.85938,2.26563 -0.84375,0.92187 -3.07812,0.92187 h -2.6875 v 4.26563 z m 1.39063,-5.5 h 2.71875 q 1.34375,0 1.90625,-0.5 0.5625,-0.5 0.5625,-1.40625 0,-0.67188 -0.32813,-1.14063 -0.32812,-0.46875 -0.875,-0.60937 -0.35937,-0.0937 -1.29687,-0.0937 h -2.6875 z m 8.3381,5.5 v -10.48438 h 1.39061 v 9.25 h 5.15625 v 1.23438 z m 8.43236,0 v -10.48438 h 1.39063 v 10.48438 z m 11.32196,-3.67188 1.39063,0.34375 q -0.4375,1.70313 -1.57813,2.60938 -1.125,0.89062 -2.76562,0.89062 -1.6875,0 -2.75,-0.6875 -1.0625,-0.6875 -1.625,-2 -0.54688,-1.3125 -0.54688,-2.8125 0,-1.64062 0.625,-2.85937 0.625,-1.21875 1.78125,-1.84375 1.15625,-0.64063 2.54688,-0.64063 1.5625,0 2.64062,0.8125 1.07813,0.79688 1.5,2.25 l -1.375,0.3125 q -0.35937,-1.14062 -1.0625,-1.65625 -0.6875,-0.53125 -1.73437,-0.53125 -1.21875,0 -2.03125,0.57813 -0.8125,0.57812 -1.14063,1.5625 -0.32812,0.96875 -0.32812,2.01562 0,1.32813 0.39062,2.32813 0.39063,1 1.21875,1.5 0.82813,0.48437 1.78125,0.48437 1.17188,0 1.96875,-0.67187 0.8125,-0.67188 1.09375,-1.98438 z m 1.95929,3.67188 4.01562,-10.48438 h 1.5 l 4.29688,10.48438 h -1.57813 l -1.23437,-3.17188 h -4.375 l -1.15625,3.17188 z m 3.01562,-4.3125 h 3.5625 l -1.09375,-2.90625 q -0.5,-1.3125 -0.75,-2.17188 -0.20312,1.01563 -0.5625,2 z m 9.48392,4.3125 v -9.25 h -3.45312 v -1.23438 h 8.31253 v 1.23438 h -3.46878 v 9.25 z m 6.51514,0 v -10.48438 h 1.39062 v 10.48438 z m 3.41574,-5.10938 q 0,-2.60937 1.40625,-4.07812 1.40625,-1.48438 3.625,-1.48438 1.45312,0 2.60937,0.70313 1.17188,0.6875 1.78125,1.92187 0.60938,1.23438 0.60938,2.8125 0,1.59375 -0.64063,2.85938 -0.64062,1.26562 -1.82812,1.90625 -1.17188,0.64062 -2.54688,0.64062 -1.46875,0 -2.64062,-0.70312 -1.17188,-0.71875 -1.78125,-1.95313 -0.59375,-1.25 -0.59375,-2.625 z m 1.4375,0.0156 q 0,1.90625 1.01562,3 1.01563,1.07812 2.5625,1.07812 1.5625,0 2.57813,-1.09375 1.01562,-1.10937 1.01562,-3.125 0,-1.28125 -0.4375,-2.23437 -0.4375,-0.96875 -1.26562,-1.48438 -0.82813,-0.53125 -1.875,-0.53125 -1.46875,0 -2.53125,1.01563 -1.0625,1.01562 -1.0625,3.375 z m 10.36883,5.09375 v -10.48438 h 1.4375 l 5.5,8.23438 v -8.23438 h 1.32813 v 10.48438 h -1.42188 l -5.5,-8.25 v 8.25 z m 14.20313,-3.375 1.3125,-0.10938 q 0.0937,0.78125 0.42187,1.29688 0.34375,0.5 1.0625,0.8125 0.71875,0.3125 1.60938,0.3125 0.79687,0 1.40625,-0.23438 0.60937,-0.23437 0.90625,-0.64062 0.29687,-0.42188 0.29687,-0.90625 0,-0.5 -0.29687,-0.85938 -0.28125,-0.375 -0.9375,-0.625 -0.42188,-0.17187 -1.875,-0.51562 -1.4375,-0.34375 -2.01563,-0.65625 -0.75,-0.39063 -1.125,-0.96875 -0.35937,-0.59375 -0.35937,-1.3125 0,-0.79688 0.4375,-1.48438 0.45312,-0.6875 1.3125,-1.04687 0.875,-0.35938 1.9375,-0.35938 1.17187,0 2.0625,0.375 0.89062,0.375 1.35937,1.10938 0.48438,0.73437 0.51563,1.65625 l -1.32813,0.0937 q -0.10937,-1 -0.73437,-1.5 -0.60938,-0.51563 -1.8125,-0.51563 -1.26563,0 -1.84375,0.46875 -0.57813,0.46875 -0.57813,1.10938 0,0.5625 0.42188,0.9375 0.39062,0.35937 2.07812,0.75 1.70313,0.375 2.32813,0.65625 0.92187,0.42187 1.35937,1.07812 0.4375,0.64063 0.4375,1.48438 0,0.84375 -0.48437,1.59375 -0.48438,0.73437 -1.39063,1.14062 -0.89062,0.40625 -2.01562,0.40625 -1.42188,0 -2.39063,-0.40625 -0.95312,-0.42187 -1.5,-1.25 -0.54687,-0.82812 -0.57812,-1.89062 z m 9.82248,-1.73438 q 0,-2.60937 1.40625,-4.07812 1.40625,-1.48438 3.625,-1.48438 1.45312,0 2.60937,0.70313 1.17188,0.6875 1.78125,1.92187 0.60938,1.23438 0.60938,2.8125 0,1.59375 -0.64063,2.85938 -0.64062,1.26562 -1.82812,1.90625 -1.17188,0.64062 -2.54688,0.64062 -1.46875,0 -2.64062,-0.70312 -1.17188,-0.71875 -1.78125,-1.95313 -0.59375,-1.25 -0.59375,-2.625 z m 1.4375,0.0156 q 0,1.90625 1.01562,3 1.01563,1.07812 2.5625,1.07812 1.5625,0 2.57813,-1.09375 1.01562,-1.10937 1.01562,-3.125 0,-1.28125 -0.4375,-2.23437 -0.4375,-0.96875 -1.26562,-1.48438 -0.82813,-0.53125 -1.875,-0.53125 -1.46875,0 -2.53125,1.01563 -1.0625,1.01562 -1.0625,3.375 z m 10.46261,5.09375 v -10.48438 h 7.07813 v 1.23438 h -5.6875 v 3.25 h 4.92187 v 1.23437 h -4.92187 v 4.76563 z m 11.54636,0 v -9.25 h -3.45312 v -1.23438 h 8.3125 v 1.23438 h -3.46875 v 9.25 z m 8.12451,0 -2.79687,-10.48438 h 1.4375 l 1.59375,6.875 q 0.25,1.07813 0.4375,2.14063 0.40625,-1.6875 0.46875,-1.9375 l 2,-7.07813 h 1.67187 l 1.5,5.29688 q 0.57813,1.98437 0.82813,3.71875 0.20312,-1 0.51562,-2.28125 l 1.64063,-6.73438 h 1.40625 l -2.875,10.48438 h -1.34375 l -2.20313,-8 q -0.28125,-1 -0.34375,-1.21875 -0.15625,0.71875 -0.29687,1.21875 l -2.23438,8 z m 10.30463,0 4.01562,-10.48438 h 1.5 l 4.29688,10.48438 h -1.57813 l -1.23437,-3.17188 h -4.375 l -1.15625,3.17188 z m 3.01562,-4.3125 h 3.5625 l -1.09375,-2.90625 q -0.5,-1.3125 -0.75,-2.17188 -0.20312,1.01563 -0.5625,2 z m 7.93186,4.3125 v -10.48438 h 4.64062 q 1.40625,0 2.14063,0.28125 0.73437,0.28125 1.17187,1 0.4375,0.70313 0.4375,1.57813 0,1.10937 -0.73437,1.875 -0.71875,0.76562 -2.23438,0.98437 0.5625,0.25 0.84375,0.51563 0.60938,0.5625 1.15625,1.39062 l 1.8125,2.85938 h -1.73437 l -1.39063,-2.1875 q -0.60937,-0.9375 -1,-1.4375 -0.39062,-0.5 -0.70312,-0.70313 -0.3125,-0.20312 -0.64063,-0.28125 -0.23437,-0.0469 -0.76562,-0.0469 h -1.60938 v 4.65625 z m 1.39062,-5.85938 h 2.98438 q 0.9375,0 1.46875,-0.1875 0.54687,-0.20312 0.82812,-0.64062 0.28125,-0.4375 0.28125,-0.9375 0,-0.75 -0.54687,-1.21875 -0.53125,-0.48438 -1.70313,-0.48438 h -3.3125 z m 9.19364,5.85938 v -10.48438 h 7.59375 v 1.23438 h -6.20313 v 3.20312 h 5.79688 v 1.23438 h -5.79688 v 3.57812 h 6.4375 v 1.23438 z"
       id="path81"
       inkscape:connector-curvature="0"
       style="fill:#000000;fill-rule:nonzero" />
    <path
       d="m 216.67717,124.5958 h 10.60629 v -14.40945 h 21.2126 v 14.40945 h 10.6063 l -21.21259,14.40945 z"
       id="path83"
       inkscape:connector-curvature="0"
       style="fill:#ffffff;fill-rule:evenodd" />
    <path
       d="m 216.67717,124.5958 h 10.60629 v -14.40945 h 21.2126 v 14.40945 h 10.6063 l -21.21259,14.40945 z"
       id="path85"
       inkscape:connector-curvature="0"
       style="fill-rule:evenodd;stroke:#595959;stroke-width:2;stroke-linecap:butt;stroke-linejoin:round" />
    <path
       d="m 364.40683,124.5958 h 10.60629 v 14.40945 h 21.21259 V 124.5958 h 10.60632 l -21.21262,-14.40945 z"
       id="path87"
       inkscape:connector-curvature="0"
       style="fill:#ffffff;fill-rule:evenodd" />
    <path
       d="m 364.40683,124.5958 h 10.60629 v 14.40945 h 21.21259 V 124.5958 h 10.60632 l -21.21262,-14.40945 z"
       id="path89"
       inkscape:connector-curvature="0"
       style="fill-rule:evenodd;stroke:#595959;stroke-width:2;stroke-linecap:butt;stroke-linejoin:round" />
    <path
       d="m 162.78477,71.385826 h 305.7953 V 110 h -305.7953 z"
       id="path91"
       inkscape:connector-curvature="0"
       style="fill:#000000;fill-opacity:0;fill-rule:evenodd" />
    <path
       d="m 162.78477,71.385826 h 305.7953 V 110 h -305.7953 z"
       id="path93"
       inkscape:connector-curvature="0"
       style="fill-rule:evenodd;stroke:#000000;stroke-width:2;stroke-linecap:butt;stroke-linejoin:round" />
    <path
       d="m 303.33817,85.288536 h 1.39062 v 6.046875 q 0,1.59375 -0.35937,2.53125 -0.35938,0.921875 -1.29688,1.5 -0.9375,0.578125 -2.45312,0.578125 -1.46875,0 -2.40625,-0.5 -0.9375,-0.515625 -1.34375,-1.46875 -0.39063,-0.96875 -0.39063,-2.640625 v -6.046875 h 1.39063 v 6.046875 q 0,1.375 0.25,2.015625 0.25,0.640625 0.85937,1 0.625,0.34375 1.53125,0.34375 1.53125,0 2.17188,-0.6875 0.65625,-0.703125 0.65625,-2.671875 z m 3.22491,7.109375 1.3125,-0.109375 q 0.0937,0.78125 0.42188,1.296875 0.34375,0.5 1.0625,0.8125 0.71875,0.3125 1.60937,0.3125 0.79688,0 1.40625,-0.234375 0.60938,-0.234375 0.90625,-0.640625 0.29688,-0.421875 0.29688,-0.90625 0,-0.5 -0.29688,-0.859375 -0.28125,-0.375 -0.9375,-0.625 -0.42187,-0.171875 -1.875,-0.515625 -1.4375,-0.34375 -2.01562,-0.65625 -0.75,-0.390625 -1.125,-0.96875 -0.35938,-0.59375 -0.35938,-1.3125 0,-0.796875 0.4375,-1.484375 0.45313,-0.6875 1.3125,-1.046875 0.875,-0.359375 1.9375,-0.359375 1.17188,0 2.0625,0.375 0.89063,0.375 1.35938,1.109375 0.48437,0.734375 0.51562,1.65625 l -1.32812,0.09375 q -0.10938,-1 -0.73438,-1.5 -0.60937,-0.515625 -1.8125,-0.515625 -1.26562,0 -1.84375,0.46875 -0.57812,0.46875 -0.57812,1.109375 0,0.5625 0.42187,0.9375 0.39063,0.359375 2.07813,0.75 1.70312,0.375 2.32812,0.65625 0.92188,0.421875 1.35938,1.078125 0.4375,0.640625 0.4375,1.484375 0,0.84375 -0.48438,1.59375 -0.48437,0.734375 -1.39062,1.140625 -0.89063,0.40625 -2.01563,0.40625 -1.42187,0 -2.39062,-0.40625 -0.95313,-0.421875 -1.5,-1.25 -0.54688,-0.828125 -0.57813,-1.890625 z m 10.27561,3.375 V 85.288536 h 7.59375 v 1.234375 h -6.20313 v 3.203125 h 5.79688 v 1.234375 h -5.79688 v 3.578125 h 6.4375 v 1.234375 z m 9.7756,0 V 85.288536 h 4.64063 q 1.40625,0 2.14062,0.28125 0.73438,0.28125 1.17188,1 0.4375,0.703125 0.4375,1.578125 0,1.109375 -0.73438,1.875 -0.71875,0.765625 -2.23437,0.984375 0.5625,0.25 0.84375,0.515625 0.60937,0.5625 1.15625,1.390625 l 1.8125,2.859375 h -1.73438 l -1.39062,-2.1875 q -0.60938,-0.9375 -1,-1.4375 -0.39063,-0.5 -0.70313,-0.703125 -0.3125,-0.203125 -0.64062,-0.28125 -0.23438,-0.04687 -0.76563,-0.04687 h -1.60937 v 4.65625 z m 1.39063,-5.859375 h 2.98437 q 0.9375,0 1.46875,-0.1875 0.54688,-0.203125 0.82813,-0.640625 0.28125,-0.4375 0.28125,-0.9375 0,-0.75 -0.54688,-1.21875 -0.53125,-0.484375 -1.70312,-0.484375 h -3.3125 z"
       id="path95"
       inkscape:connector-curvature="0"
       style="fill:#000000;fill-rule:nonzero" />
    <path
       d="M 28.664042,138.68504 H 211.15223 v 42.01575 H 28.664042 Z"
       id="path97"
       inkscape:connector-curvature="0"
       style="fill:#000000;fill-opacity:0;fill-rule:evenodd" />
    <path
       d="m 38.851543,161.27692 2.609375,-0.14063 q 0.0625,1.25 0.4375,1.6875 0.59375,0.71875 2.21875,0.71875 1.34375,0 1.9375,-0.48437 0.609375,-0.48438 0.609375,-1.17188 0,-0.59375 -0.484375,-1 -0.359375,-0.29687 -1.90625,-0.96875 -1.546875,-0.6875 -2.265625,-1.125 -0.71875,-0.45312 -1.125,-1.17187 -0.40625,-0.71875 -0.40625,-1.6875 0,-1.6875 1.21875,-2.79688 1.21875,-1.10937 3.53125,-1.10937 2.34375,0 3.625,1.10937 1.296875,1.09375 1.421875,2.92188 l -2.625,0.125 q -0.09375,-0.96875 -0.6875,-1.46875 -0.59375,-0.51563 -1.75,-0.51563 -1.140625,0 -1.640625,0.40625 -0.484375,0.39063 -0.484375,1 0,0.57813 0.453125,0.95313 0.453125,0.39062 1.984375,1.04687 2.296875,1 2.921875,1.60938 0.9375,0.92187 0.9375,2.34375 0,1.76562 -1.40625,3.03125 -1.390625,1.25 -3.875,1.25 -1.734375,0 -3,-0.57813 -1.25,-0.57812 -1.78125,-1.60937 -0.515625,-1.03125 -0.46875,-2.375 z m 12.881073,-0.90625 q 0,-1.1875 0.359375,-2.5 0.46875,-1.75 1.421875,-3.04688 0.953125,-1.29687 2.390625,-2.04687 1.453125,-0.75 3.296875,-0.75 2.484375,0 4,1.54687 1.531246,1.53125 1.531246,4.0625 0,2.125 -0.999996,4.10938 -0.984375,1.96875 -2.6875,3.03125 -1.703125,1.0625 -3.84375,1.0625 -1.875,0 -3.140625,-0.84375 -1.265625,-0.84375 -1.796875,-2.09375 -0.53125,-1.26563 -0.53125,-2.53125 z m 2.71875,-0.0625 q 0,1.375 0.828125,2.3125 0.84375,0.92187 2.21875,0.92187 1.109375,0 2.125,-0.73437 1.03125,-0.73438 1.703125,-2.21875 0.671875,-1.48438 0.671875,-2.90625 0,-1.5625 -0.859375,-2.45313 -0.84375,-0.90625 -2.15625,-0.90625 -2,0 -3.265625,1.875 -1.265625,1.875 -1.265625,4.10938 z m 10.90205,5.29687 2.796875,-13.35937 h 9.34375 l -0.484375,2.23437 h -6.59375 l -0.671875,3.20313 h 6.46875 l -0.46875,2.23437 h -6.453125 l -1.1875,5.6875 z m 17.23973,0 h -2.75 l 2.328125,-11.125 h -3.921875 l 0.46875,-2.23437 h 10.53125 l -0.46875,2.23437 h -3.859375 z m 18.286604,0 h -2.781248 l -0.296875,-9.76562 -4.875,9.76562 h -2.828125 l -0.5,-13.35937 h 2.6875 l 0.109375,9.34375 4.59375,-9.34375 h 2.96875 l 0.312503,9.25 4.40625,-9.25 h 2.65625 z m 12.62558,-2.95312 h -5.29687 l -1.60938,2.95312 h -2.8125 l 7.54688,-13.35937 h 3.04687 l 2.17188,13.35937 h -2.60938 z m -0.34375,-2.21875 -0.76562,-5.375 -3.23438,5.375 z m 7.8792,5.17187 h -2.76563 l 2.79688,-13.35937 h 5.9375 q 1.53126,0 2.37501,0.32812 0.85937,0.3125 1.375,1.15625 0.53125,0.82813 0.53125,2.01563 0,1.70312 -1.03125,2.8125 -1.01563,1.10937 -3.07814,1.375 0.53125,0.46875 1.00001,1.25 0.92188,1.5625 2.04688,4.42187 h -2.95314 q -0.35937,-1.125 -1.39062,-3.53125 -0.5625,-1.28125 -1.20313,-1.73437 -0.39062,-0.26563 -1.375,-0.26563 h -1.10937 z m 1.5625,-7.53125 h 1.46875 q 2.20312,0 2.92187,-0.26562 0.73438,-0.26563 1.14064,-0.82813 0.42187,-0.5625 0.42187,-1.1875 0,-0.73437 -0.59376,-1.09375 -0.375,-0.21875 -1.57812,-0.21875 h -3.03125 z m 9.09795,7.53125 2.78125,-13.35937 h 9.90625 l -0.46875,2.23437 h -7.14062 l -0.64063,3.03125 h 6.90625 l -0.45312,2.23438 h -6.92188 l -0.82812,3.625 h 7.76562 l -0.46875,2.23437 z"
       id="path99"
       inkscape:connector-curvature="0"
       style="fill:#000000;fill-rule:nonzero" />
    <path
       d="M 28.664042,206.76772 H 211.15223 v 42.01575 H 28.664042 Z"
       id="path101"
       inkscape:connector-curvature="0"
       style="fill:#000000;fill-opacity:0;fill-rule:evenodd" />
    <path
       d="m 38.851543,229.35959 2.609375,-0.14063 q 0.0625,1.25 0.4375,1.6875 0.59375,0.71875 2.21875,0.71875 1.34375,0 1.9375,-0.48437 0.609375,-0.48438 0.609375,-1.17188 0,-0.59375 -0.484375,-1 -0.359375,-0.29687 -1.90625,-0.96875 -1.546875,-0.6875 -2.265625,-1.125 -0.71875,-0.45312 -1.125,-1.17187 -0.40625,-0.71875 -0.40625,-1.6875 0,-1.6875 1.21875,-2.79688 1.21875,-1.10937 3.53125,-1.10937 2.34375,0 3.625,1.10937 1.296875,1.09375 1.421875,2.92188 l -2.625,0.125 q -0.09375,-0.96875 -0.6875,-1.46875 -0.59375,-0.51563 -1.75,-0.51563 -1.140625,0 -1.640625,0.40625 -0.484375,0.39063 -0.484375,1 0,0.57813 0.453125,0.95313 0.453125,0.39062 1.984375,1.04687 2.296875,1 2.921875,1.60938 0.9375,0.92187 0.9375,2.34375 0,1.76562 -1.40625,3.03125 -1.390625,1.25 -3.875,1.25 -1.734375,0 -3,-0.57813 -1.25,-0.57812 -1.78125,-1.60937 -0.515625,-1.03125 -0.46875,-2.375 z m 12.881073,-0.90625 q 0,-1.1875 0.359375,-2.5 0.46875,-1.75 1.421875,-3.04688 0.953125,-1.29687 2.390625,-2.04687 1.453125,-0.75 3.296875,-0.75 2.484375,0 4,1.54687 1.531246,1.53125 1.531246,4.0625 0,2.125 -0.999996,4.10938 -0.984375,1.96875 -2.6875,3.03125 -1.703125,1.0625 -3.84375,1.0625 -1.875,0 -3.140625,-0.84375 -1.265625,-0.84375 -1.796875,-2.09375 -0.53125,-1.26563 -0.53125,-2.53125 z m 2.71875,-0.0625 q 0,1.375 0.828125,2.3125 0.84375,0.92187 2.21875,0.92187 1.109375,0 2.125,-0.73437 1.03125,-0.73438 1.703125,-2.21875 0.671875,-1.48438 0.671875,-2.90625 0,-1.5625 -0.859375,-2.45313 -0.84375,-0.90625 -2.15625,-0.90625 -2,0 -3.265625,1.875 -1.265625,1.875 -1.265625,4.10938 z m 10.90205,5.29687 2.796875,-13.35937 h 9.34375 l -0.484375,2.23437 h -6.59375 l -0.671875,3.20313 h 6.46875 l -0.46875,2.23437 h -6.453125 l -1.1875,5.6875 z m 17.23973,0 h -2.75 l 2.328125,-11.125 h -3.921875 l 0.46875,-2.23437 h 10.53125 l -0.46875,2.23437 h -3.859375 z m 18.286604,0 h -2.781248 l -0.296875,-9.76562 -4.875,9.76562 h -2.828125 l -0.5,-13.35937 h 2.6875 l 0.109375,9.34375 4.59375,-9.34375 h 2.96875 l 0.312503,9.25 4.40625,-9.25 h 2.65625 z m 12.62558,-2.95312 h -5.29687 l -1.60938,2.95312 h -2.8125 l 7.54688,-13.35937 h 3.04687 l 2.17188,13.35937 h -2.60938 z m -0.34375,-2.21875 -0.76562,-5.375 -3.23438,5.375 z m 7.8792,5.17187 h -2.76563 l 2.79688,-13.35937 h 5.9375 q 1.53126,0 2.37501,0.32812 0.85937,0.3125 1.375,1.15625 0.53125,0.82813 0.53125,2.01563 0,1.70312 -1.03125,2.8125 -1.01563,1.10937 -3.07814,1.375 0.53125,0.46875 1.00001,1.25 0.92188,1.5625 2.04688,4.42187 h -2.95314 q -0.35937,-1.125 -1.39062,-3.53125 -0.5625,-1.28125 -1.20313,-1.73437 -0.39062,-0.26563 -1.375,-0.26563 h -1.10937 z m 1.5625,-7.53125 h 1.46875 q 2.20312,0 2.92187,-0.26562 0.73438,-0.26563 1.14064,-0.82813 0.42187,-0.5625 0.42187,-1.1875 0,-0.73437 -0.59376,-1.09375 -0.375,-0.21875 -1.57812,-0.21875 h -3.03125 z m 9.09795,7.53125 2.78125,-13.35937 h 9.90625 l -0.46875,2.23437 h -7.14062 l -0.64063,3.03125 h 6.90625 l -0.45312,2.23438 h -6.92188 l -0.82812,3.625 h 7.76562 l -0.46875,2.23437 z"
       id="path103"
       inkscape:connector-curvature="0"
       style="fill:#000000;fill-rule:nonzero" />
    <path
       d="M 28.664042,430.55118 H 211.15223 v 42.01575 H 28.664042 Z"
       id="path105"
       inkscape:connector-curvature="0"
       style="fill:#000000;fill-opacity:0;fill-rule:evenodd" />
    <path
       d="m 38.476543,457.4712 2.796875,-13.35938 h 3.59375 q 1.5,0 1.921875,0.0469 0.828125,0.0781 1.484375,0.34375 0.65625,0.25 1.1875,0.71875 0.53125,0.45312 0.90625,1.10937 0.390625,0.64063 0.59375,1.48438 0.21875,0.84375 0.21875,1.84375 0,2.15625 -0.828125,3.82812 -0.8125,1.67188 -2.0625,2.65625 -0.953125,0.76563 -2.46875,1.125 -0.859375,0.20313 -2.640625,0.20313 z m 3.203125,-2.15625 h 1.390625 q 1.515625,0 2.1875,-0.17188 0.671875,-0.1875 1.25,-0.70312 0.796875,-0.73438 1.359375,-1.96875 0.5625,-1.23438 0.5625,-2.89063 0,-1.42187 -0.46875,-2.14062 -0.453125,-0.71875 -1.125,-0.95313 -0.484375,-0.17187 -1.6875,-0.17187 h -1.59375 z m 18.972946,-0.79688 h -5.296875 l -1.609375,2.95313 h -2.8125 l 7.546875,-13.35938 h 3.046875 l 2.171875,13.35938 h -2.609375 z m -0.34375,-2.21875 -0.765625,-5.375 -3.234375,5.375 z m 9.493771,5.17188 h -2.75 l 2.328125,-11.125 h -3.921875 l 0.46875,-2.23438 h 10.53125 l -0.46875,2.23438 H 72.13076 Z m 12.948059,-2.95313 h -5.296875 l -1.609375,2.95313 h -2.8125 l 7.546875,-13.35938 h 3.046875 l 2.171875,13.35938 h -2.609375 z m -0.34375,-2.21875 -0.765625,-5.375 -3.234375,5.375 z"
       id="path107"
       inkscape:connector-curvature="0"
       style="fill:#000000;fill-rule:nonzero" />
    <path
       d="m 349,403.39896 21.21258,-21.21262 21.21262,21.21262 h -10.60629 v 12.56693 H 391.4252 L 370.21258,437.17847 349,415.96589 h 10.60629 v -12.56693 z"
       id="path109"
       inkscape:connector-curvature="0"
       style="fill:#ffffff;fill-rule:evenodd" />
    <path
       d="m 349,403.39896 21.21258,-21.21262 21.21262,21.21262 h -10.60629 v 12.56693 H 391.4252 L 370.21258,437.17847 349,415.96589 h 10.60629 v -12.56693 z"
       id="path111"
       inkscape:connector-curvature="0"
       style="fill-rule:evenodd;stroke:#595959;stroke-width:2;stroke-linecap:butt;stroke-linejoin:round" />
  </g>
</svg>
