<?xml version="1.0" encoding="UTF-8" standalone="no"?>
<svg
   xmlns:dc="http://purl.org/dc/elements/1.1/"
   xmlns:cc="http://creativecommons.org/ns#"
   xmlns:rdf="http://www.w3.org/1999/02/22-rdf-syntax-ns#"
   xmlns:svg="http://www.w3.org/2000/svg"
   xmlns="http://www.w3.org/2000/svg"
   xmlns:sodipodi="http://sodipodi.sourceforge.net/DTD/sodipodi-0.dtd"
   xmlns:inkscape="http://www.inkscape.org/namespaces/inkscape"
   version="1.1"
   viewBox="0 0 415.74804 415.74804"
   stroke-miterlimit="10"
   id="svg151"
   sodipodi:docname="TheExperiment.svg"
   inkscape:version="0.92.4 (5da689c313, 2019-01-14)"
   width="110mm"
   height="110mm"
   style="fill:none;stroke:none;stroke-linecap:square;stroke-miterlimit:10">
  <metadata
     id="metadata157">
    <rdf:RDF>
      <cc:Work
         rdf:about="">
        <dc:format>image/svg+xml</dc:format>
        <dc:type
           rdf:resource="http://purl.org/dc/dcmitype/StillImage" />
        <dc:title></dc:title>
      </cc:Work>
    </rdf:RDF>
  </metadata>
  <defs
     id="defs155" />
  <sodipodi:namedview
     pagecolor="#ffffff"
     bordercolor="#666666"
     borderopacity="1"
     objecttolerance="10"
     gridtolerance="10"
     guidetolerance="10"
     inkscape:pageopacity="0"
     inkscape:pageshadow="2"
     inkscape:window-width="1920"
     inkscape:window-height="1000"
     id="namedview153"
     showgrid="false"
     inkscape:zoom="1.4636059"
     inkscape:cx="80.90932"
     inkscape:cy="252.72186"
     inkscape:window-x="-11"
     inkscape:window-y="-11"
     inkscape:window-maximized="1"
     inkscape:current-layer="svg151"
     units="mm"
     width="110mm" />
  <clipPath
     id="gb4496df1a0_0_72.0">
    <path
       d="M 0,0 H 960 V 540 H 0 Z"
       id="path2"
       inkscape:connector-curvature="0"
       style="clip-rule:nonzero" />
  </clipPath>
  <g
     id="g5363"
     transform="translate(-478.2211,-684.95758)">
    <path
       d="m 489.3596,699.07527 h 194.74014 v 50.99212 H 489.3596 Z"
       id="path7"
       inkscape:connector-curvature="0"
       style="fill:#000000;fill-opacity:0;fill-rule:evenodd" />
    <path
       d="m 489.3596,699.07527 h 194.74014 v 50.99212 H 489.3596 Z"
       id="path9"
       inkscape:connector-curvature="0"
       style="fill-rule:evenodd;stroke:#000000;stroke-width:2;stroke-linecap:butt;stroke-linejoin:round" />
    <path
       d="m 540.2459,720.65133 v -10.48437 h 7.59375 v 1.23437 h -6.20313 v 3.20312 h 5.79688 v 1.23438 h -5.79688 v 3.57812 h 6.4375 v 1.23438 z m 8.68188,0 4.0625,-5.46875 -3.57812,-5.01562 h 1.65625 l 1.89062,2.68749 q 0.59375,0.82813 0.84375,1.28125 0.35938,-0.5625 0.84375,-1.1875 l 2.10938,-2.78124 h 1.5 l -3.6875,4.93749 3.98437,5.54688 h -1.71875 l -2.64062,-3.75 q -0.21875,-0.3125 -0.46875,-0.6875 -0.34375,0.5625 -0.5,0.78125 l -2.625,3.65625 z m 10.83808,0 v -10.48437 h 3.96875 q 1.04687,0 1.59375,0.0937 0.76562,0.125 1.28125,0.48437 0.53125,0.35937 0.84375,1.01562 0.32812,0.65625 0.32812,1.4375 0,1.32813 -0.85937,2.26563 -0.84375,0.92187 -3.07813,0.92187 h -2.6875 v 4.26563 z m 1.39062,-5.5 h 2.71875 q 1.34375,0 1.90625,-0.5 0.5625,-0.5 0.5625,-1.40625 0,-0.67188 -0.32812,-1.14063 -0.32813,-0.46875 -0.875,-0.60937 -0.35938,-0.0937 -1.29688,-0.0937 h -2.6875 z m 8.41626,5.5 v -10.48437 h 7.59375 v 1.23437 h -6.20312 v 3.20312 h 5.79687 v 1.23438 h -5.79687 v 3.57812 h 6.4375 v 1.23438 z m 9.77558,0 v -10.48437 h 4.64062 q 1.40625,0 2.14063,0.28125 0.73437,0.28124 1.17187,0.99999 0.4375,0.70313 0.4375,1.57813 0,1.10937 -0.73437,1.875 -0.71875,0.76562 -2.23438,0.98437 0.5625,0.25 0.84375,0.51563 0.60938,0.5625 1.15625,1.39062 l 1.8125,2.85938 h -1.73437 l -1.39063,-2.1875 q -0.60937,-0.9375 -1,-1.4375 -0.39062,-0.5 -0.70312,-0.70313 -0.3125,-0.20312 -0.64063,-0.28125 -0.23437,-0.0469 -0.76562,-0.0469 h -1.60938 v 4.65625 z m 1.39062,-5.85938 h 2.98438 q 0.9375,0 1.46875,-0.1875 0.54687,-0.20312 0.82812,-0.64062 0.28125,-0.4375 0.28125,-0.9375 0,-0.75 -0.54687,-1.21875 -0.53125,-0.48438 -1.70313,-0.48438 h -3.3125 z m 9.39679,5.85938 v -10.48437 h 1.39063 v 10.48437 z m 3.80634,0 v -10.48437 h 2.07812 l 2.48438,7.42187 q 0.34375,1.03125 0.5,1.54687 0.1875,-0.5625 0.5625,-1.67187 l 2.51562,-7.29687 h 1.85938 v 10.48437 h -1.32813 v -8.78125 l -3.04687,8.78125 h -1.26563 l -3.03125,-8.9375 v 8.9375 z m 12.2713,0 v -10.48437 h 7.59375 v 1.23437 h -6.20313 v 3.20312 h 5.79688 v 1.23438 h -5.79688 v 3.57812 h 6.4375 v 1.23438 z m 9.7287,0 v -10.48437 h 1.4375 l 5.5,8.23437 v -8.23437 h 1.32812 v 10.48437 h -1.42187 l -5.5,-8.25 v 8.25 z m 13.27179,0 v -9.25 h -3.45313 v -1.23437 h 8.3125 v 1.23437 h -3.46875 v 9.25 z"
       id="path11"
       inkscape:connector-curvature="0"
       style="fill:#000000;fill-rule:nonzero" />
    <path
       d="m 543.72815,741.72945 q -1.0625,-1.34375 -1.79687,-3.14063 -0.73438,-1.8125 -0.73438,-3.73437 0,-1.70313 0.54688,-3.26563 0.64062,-1.8125 1.98437,-3.60937 h 0.92188 q -0.85938,1.48437 -1.14063,2.125 -0.4375,0.98437 -0.6875,2.0625 -0.29687,1.34375 -0.29687,2.6875 0,3.45312 2.125,6.875 z m 1.94312,-6.875 q 0,-2.10938 1.17187,-3.125 0.98438,-0.84375 2.39063,-0.84375 1.57812,0 2.5625,1.03125 1,1.01562 1,2.82812 0,1.46875 -0.4375,2.3125 -0.4375,0.82813 -1.28125,1.29688 -0.84375,0.46875 -1.84375,0.46875 -1.59375,0 -2.57813,-1.01563 -0.98437,-1.03125 -0.98437,-2.95312 z m 1.32812,0 q 0,1.45312 0.625,2.1875 0.64063,0.71875 1.60938,0.71875 0.96875,0 1.59375,-0.71875 0.64062,-0.73438 0.64062,-2.23438 0,-1.40625 -0.64062,-2.125 -0.64063,-0.73437 -1.59375,-0.73437 -0.96875,0 -1.60938,0.71875 -0.625,0.71875 -0.625,2.1875 z m 7.29175,3.79687 v -7.59375 h 1.15625 v 1.14063 q 0.45312,-0.79688 0.82812,-1.04688 0.375,-0.26562 0.8125,-0.26562 0.65625,0 1.32813,0.40625 l -0.4375,1.20312 q -0.46875,-0.28125 -0.95313,-0.28125 -0.42187,0 -0.76562,0.25 -0.32813,0.25 -0.46875,0.70313 -0.21875,0.6875 -0.21875,1.5 v 3.98437 z m 8.45264,-2.26562 1.26562,-0.20313 q 0.10938,0.76563 0.59375,1.17188 0.5,0.40625 1.375,0.40625 0.89063,0 1.3125,-0.35938 0.4375,-0.35937 0.4375,-0.84375 0,-0.4375 -0.375,-0.6875 -0.26562,-0.17187 -1.3125,-0.4375 -1.42187,-0.35937 -1.96875,-0.60937 -0.54687,-0.26563 -0.82812,-0.73438 -0.28125,-0.46875 -0.28125,-1.01562 0,-0.51563 0.21875,-0.9375 0.23437,-0.4375 0.64062,-0.73438 0.29688,-0.21875 0.8125,-0.35937 0.53125,-0.15625 1.125,-0.15625 0.89063,0 1.5625,0.26562 0.67188,0.25 1,0.6875 0.32813,0.4375 0.4375,1.17188 l -1.25,0.17187 q -0.0937,-0.57812 -0.5,-0.90625 -0.40625,-0.34375 -1.15625,-0.34375 -0.89062,0 -1.28125,0.29688 -0.375,0.29687 -0.375,0.6875 0,0.25 0.15625,0.45312 0.15625,0.20313 0.5,0.34375 0.1875,0.0781 1.14063,0.32813 1.35937,0.35937 1.89062,0.59375 0.54688,0.23437 0.85938,0.6875 0.3125,0.4375 0.3125,1.09375 0,0.64062 -0.375,1.21875 -0.375,0.5625 -1.09375,0.875 -0.70313,0.3125 -1.59375,0.3125 -1.48438,0 -2.26563,-0.60938 -0.76562,-0.625 -0.98437,-1.82812 z m 7.84375,-6.75 v -1.46875 h 1.29687 v 1.46875 z m 0,9.01562 v -7.59375 h 1.29687 v 7.59375 z m 3.25616,0 v -7.59375 h 1.15625 v 1.0625 q 0.34375,-0.5625 0.9375,-0.89062 0.60937,-0.34375 1.35937,-0.34375 0.84375,0 1.375,0.34375 0.54688,0.34375 0.76563,0.98437 0.90625,-1.32812 2.35937,-1.32812 1.125,0 1.73438,0.625 0.60937,0.625 0.60937,1.92187 v 5.21875 h -1.28125 v -4.78125 q 0,-0.78125 -0.125,-1.10937 -0.125,-0.34375 -0.45312,-0.54688 -0.32813,-0.21875 -0.78125,-0.21875 -0.79688,0 -1.32813,0.53125 -0.53125,0.53125 -0.53125,1.70313 v 4.42187 h -1.28125 v -4.9375 q 0,-0.85937 -0.3125,-1.28125 -0.3125,-0.4375 -1.03125,-0.4375 -0.54687,0 -1.01562,0.29688 -0.45313,0.28125 -0.67188,0.82812 -0.20312,0.54688 -0.20312,1.59375 v 3.9375 z m 17.19311,0 v -1.10937 q -0.89062,1.28125 -2.42187,1.28125 -0.67188,0 -1.25,-0.25 -0.57813,-0.26563 -0.875,-0.65625 -0.28125,-0.39063 -0.39063,-0.95313 -0.0781,-0.375 -0.0781,-1.20312 v -4.70313 h 1.28125 v 4.20313 q 0,1.01562 0.0781,1.35937 0.125,0.51563 0.51563,0.8125 0.40625,0.28125 0.98437,0.28125 0.57813,0 1.07813,-0.29687 0.51562,-0.29688 0.71875,-0.8125 0.21875,-0.51563 0.21875,-1.48438 v -4.0625 h 1.28125 v 7.59375 z m 3.1355,0 v -10.48437 h 1.28125 v 10.48437 z m 8.24054,-0.9375 q -0.71875,0.60938 -1.375,0.85938 -0.65625,0.25 -1.42187,0.25 -1.25,0 -1.92188,-0.60938 -0.67187,-0.60937 -0.67187,-1.5625 0,-0.5625 0.25,-1.01562 0.25,-0.46875 0.65625,-0.75 0.42187,-0.28125 0.9375,-0.42188 0.375,-0.0937 1.14062,-0.1875 1.5625,-0.1875 2.29688,-0.45312 0.0156,-0.26563 0.0156,-0.32813 0,-0.79687 -0.375,-1.10937 -0.48437,-0.4375 -1.45312,-0.4375 -0.92188,0 -1.35938,0.32812 -0.42187,0.3125 -0.625,1.10938 l -1.26562,-0.17188 q 0.17187,-0.79687 0.5625,-1.29687 0.39062,-0.5 1.14062,-0.76563 0.75,-0.26562 1.71875,-0.26562 0.98438,0 1.59375,0.23437 0.60938,0.21875 0.89063,0.5625 0.28125,0.34375 0.40625,0.875 0.0625,0.32813 0.0625,1.1875 v 1.71875 q 0,1.79688 0.0781,2.28125 0.0781,0.46875 0.32813,0.90625 h -1.34375 q -0.20313,-0.40625 -0.26563,-0.9375 z m -0.10937,-2.875 q -0.70313,0.28125 -2.09375,0.48438 -0.79688,0.10937 -1.125,0.26562 -0.32813,0.14063 -0.51563,0.42188 -0.17187,0.26562 -0.17187,0.59375 0,0.51562 0.39062,0.85937 0.39063,0.34375 1.14063,0.34375 0.73437,0 1.3125,-0.3125 0.59375,-0.32812 0.85937,-0.89062 0.20313,-0.4375 0.20313,-1.29688 z m 6.11981,2.65625 0.1875,1.14063 q -0.54688,0.10937 -0.98438,0.10937 -0.6875,0 -1.07812,-0.21875 -0.39063,-0.21875 -0.54688,-0.57812 -0.15625,-0.35938 -0.15625,-1.51563 v -4.375 h -0.95312 v -1 h 0.95312 v -1.89062 l 1.28125,-0.76563 v 2.65625 h 1.29688 v 1 h -1.29688 v 4.4375 q 0,0.54688 0.0625,0.71875 0.0781,0.15625 0.21875,0.25 0.15625,0.0781 0.45313,0.0781 0.20312,0 0.5625,-0.0469 z m 1.25952,-7.85937 v -1.46875 h 1.29688 v 1.46875 z m 0,9.01562 v -7.59375 h 1.29688 v 7.59375 z m 2.77173,-3.79687 q 0,-2.10938 1.17187,-3.125 0.98438,-0.84375 2.39063,-0.84375 1.57812,0 2.5625,1.03125 1,1.01562 1,2.82812 0,1.46875 -0.4375,2.3125 -0.4375,0.82813 -1.28125,1.29688 -0.84375,0.46875 -1.84375,0.46875 -1.59375,0 -2.57813,-1.01563 -0.98437,-1.03125 -0.98437,-2.95312 z m 1.32812,0 q 0,1.45312 0.625,2.1875 0.64063,0.71875 1.60938,0.71875 0.96875,0 1.59375,-0.71875 0.64062,-0.73438 0.64062,-2.23438 0,-1.40625 -0.64062,-2.125 -0.64063,-0.73437 -1.59375,-0.73437 -0.96875,0 -1.60938,0.71875 -0.625,0.71875 -0.625,2.1875 z m 7.30738,3.79687 v -7.59375 h 1.15625 v 1.07813 q 0.84375,-1.25 2.42187,-1.25 0.6875,0 1.26563,0.25 0.57812,0.23437 0.85937,0.64062 0.28125,0.40625 0.40625,0.95313 0.0625,0.35937 0.0625,1.25 v 4.67187 h -1.28125 v -4.625 q 0,-0.78125 -0.15625,-1.17187 -0.15625,-0.39063 -0.54687,-0.625 -0.375,-0.23438 -0.89063,-0.23438 -0.8125,0 -1.42187,0.53125 -0.59375,0.51563 -0.59375,1.96875 v 4.15625 z m 8.99487,3.07813 h -0.92187 q 2.14062,-3.42188 2.14062,-6.875 0,-1.34375 -0.3125,-2.67188 -0.25,-1.0625 -0.67187,-2.04687 -0.28125,-0.65625 -1.15625,-2.15625 h 0.92187 q 1.34375,1.79687 1.98438,3.60937 0.54687,1.5625 0.54687,3.26563 0,1.92187 -0.73437,3.73437 -0.73438,1.79688 -1.79688,3.14063 z"
       id="path13"
       inkscape:connector-curvature="0"
       style="fill:#000000;fill-rule:nonzero" />
    <path
       d="m 489.3596,866.13389 h 194.74014 v 64.9134 H 489.3596 Z"
       id="path15"
       inkscape:connector-curvature="0"
       style="fill:#000000;fill-opacity:0;fill-rule:evenodd" />
    <path
       d="m 489.3596,866.13389 h 194.74014 v 64.9134 H 489.3596 Z"
       id="path17"
       inkscape:connector-curvature="0"
       style="fill-rule:evenodd;stroke:#000000;stroke-width:2;stroke-linecap:butt;stroke-linejoin:round" />
    <path
       d="m 552.0191,903.67059 v -10.4844 h 3.96875 q 1.04687,0 1.59375,0.094 0.76562,0.125 1.28125,0.4844 0.53125,0.3594 0.84375,1.0156 0.32812,0.6563 0.32812,1.4375 0,1.3281 -0.85937,2.2656 -0.84375,0.9219 -3.07813,0.9219 h -2.6875 v 4.2656 z m 1.39062,-5.5 h 2.71875 q 1.34375,0 1.90625,-0.5 0.5625,-0.5 0.5625,-1.4063 0,-0.6718 -0.32812,-1.1406 -0.32813,-0.4687 -0.875,-0.6094 -0.35938,-0.094 -1.29688,-0.094 h -2.6875 z m 8.41626,5.5 v -10.4844 h 4.64063 q 1.40625,0 2.14062,0.2813 0.73438,0.2812 1.17188,1 0.4375,0.7031 0.4375,1.5781 0,1.1094 -0.73438,1.875 -0.71875,0.7656 -2.23437,0.9844 0.5625,0.25 0.84375,0.5156 0.60937,0.5625 1.15625,1.3906 l 1.8125,2.8594 h -1.73438 l -1.39062,-2.1875 q -0.60938,-0.9375 -1,-1.4375 -0.39063,-0.5 -0.70313,-0.7031 -0.3125,-0.2032 -0.64062,-0.2813 -0.23438,-0.047 -0.76563,-0.047 h -1.60937 v 4.6563 z m 1.39063,-5.8594 h 2.98437 q 0.9375,0 1.46875,-0.1875 0.54688,-0.2031 0.82813,-0.6406 0.28125,-0.4375 0.28125,-0.9375 0,-0.75 -0.54688,-1.2188 -0.53125,-0.4843 -1.70312,-0.4843 h -3.3125 z m 8.74054,0.75 q 0,-2.6094 1.40625,-4.0781 1.40625,-1.4844 3.625,-1.4844 1.45312,0 2.60937,0.7031 1.17188,0.6875 1.78125,1.9219 0.60938,1.2344 0.60938,2.8125 0,1.5938 -0.64063,2.8594 -0.64062,1.2656 -1.82812,1.9062 -1.17188,0.6407 -2.54688,0.6407 -1.46875,0 -2.64062,-0.7032 -1.17188,-0.7187 -1.78125,-1.9531 -0.59375,-1.25 -0.59375,-2.625 z m 1.4375,0.016 q 0,1.9063 1.01562,3 1.01563,1.0781 2.5625,1.0781 1.5625,0 2.57813,-1.0937 1.01562,-1.1094 1.01562,-3.125 0,-1.2813 -0.4375,-2.2344 -0.4375,-0.9687 -1.26562,-1.4844 -0.82813,-0.5312 -1.875,-0.5312 -1.46875,0 -2.53125,1.0156 -1.0625,1.0156 -1.0625,3.375 z m 17.86883,1.4219 1.39063,0.3437 q -0.4375,1.7032 -1.57813,2.6094 -1.125,0.8906 -2.76562,0.8906 -1.6875,0 -2.75,-0.6875 -1.0625,-0.6875 -1.625,-2 -0.54688,-1.3125 -0.54688,-2.8125 0,-1.6406 0.625,-2.8593 0.625,-1.2188 1.78125,-1.8438 1.15625,-0.6406 2.54688,-0.6406 1.5625,0 2.64062,0.8125 1.07813,0.7969 1.5,2.25 l -1.375,0.3125 q -0.35937,-1.1406 -1.0625,-1.6563 -0.6875,-0.5312 -1.73437,-0.5312 -1.21875,0 -2.03125,0.5781 -0.8125,0.5781 -1.14063,1.5625 -0.32812,0.9688 -0.32812,2.0156 0,1.3282 0.39062,2.3282 0.39063,1 1.21875,1.5 0.82813,0.4843 1.78125,0.4843 1.17188,0 1.96875,-0.6718 0.8125,-0.6719 1.09375,-1.9844 z m 3.13117,3.6719 v -10.4844 h 7.59375 v 1.2344 h -6.20313 v 3.2031 h 5.79688 v 1.2344 h -5.79688 v 3.5781 h 6.4375 v 1.2344 z m 9.27557,-3.375 1.3125,-0.1094 q 0.0937,0.7812 0.42188,1.2969 0.34375,0.5 1.0625,0.8125 0.71875,0.3125 1.60937,0.3125 0.79688,0 1.40625,-0.2344 0.60938,-0.2344 0.90625,-0.6406 0.29688,-0.4219 0.29688,-0.9063 0,-0.5 -0.29688,-0.8594 -0.28125,-0.375 -0.9375,-0.625 -0.42187,-0.1718 -1.875,-0.5156 -1.4375,-0.3437 -2.01562,-0.6562 -0.75,-0.3907 -1.125,-0.9688 -0.35938,-0.5937 -0.35938,-1.3125 0,-0.7969 0.4375,-1.4844 0.45313,-0.6875 1.3125,-1.0468 0.875,-0.3594 1.9375,-0.3594 1.17188,0 2.0625,0.375 0.89063,0.375 1.35938,1.1094 0.48437,0.7343 0.51562,1.6562 l -1.32812,0.094 q -0.10938,-1 -0.73438,-1.5 -0.60937,-0.5156 -1.8125,-0.5156 -1.26562,0 -1.84375,0.4687 -0.57812,0.4688 -0.57812,1.1094 0,0.5625 0.42187,0.9375 0.39063,0.3594 2.07813,0.75 1.70312,0.375 2.32812,0.6563 0.92188,0.4218 1.35938,1.0781 0.4375,0.6406 0.4375,1.4844 0,0.8437 -0.48438,1.5937 -0.48437,0.7344 -1.39062,1.1406 -0.89063,0.4063 -2.01563,0.4063 -1.42187,0 -2.39062,-0.4063 -0.95313,-0.4218 -1.5,-1.25 -0.54688,-0.8281 -0.57813,-1.8906 z m 9.77564,0 1.3125,-0.1094 q 0.0937,0.7812 0.42187,1.2969 0.34375,0.5 1.0625,0.8125 0.71875,0.3125 1.60938,0.3125 0.79687,0 1.40625,-0.2344 0.60937,-0.2344 0.90625,-0.6406 0.29687,-0.4219 0.29687,-0.9063 0,-0.5 -0.29687,-0.8594 -0.28125,-0.375 -0.9375,-0.625 -0.42188,-0.1718 -1.875,-0.5156 -1.4375,-0.3437 -2.01563,-0.6562 -0.75,-0.3907 -1.125,-0.9688 -0.35937,-0.5937 -0.35937,-1.3125 0,-0.7969 0.4375,-1.4844 0.45312,-0.6875 1.3125,-1.0468 0.875,-0.3594 1.9375,-0.3594 1.17187,0 2.0625,0.375 0.89062,0.375 1.35937,1.1094 0.48438,0.7343 0.51563,1.6562 l -1.32813,0.094 q -0.10937,-1 -0.73437,-1.5 -0.60938,-0.5156 -1.8125,-0.5156 -1.26563,0 -1.84375,0.4687 -0.57813,0.4688 -0.57813,1.1094 0,0.5625 0.42188,0.9375 0.39062,0.3594 2.07812,0.75 1.70313,0.375 2.32813,0.6563 0.92187,0.4218 1.35937,1.0781 0.4375,0.6406 0.4375,1.4844 0,0.8437 -0.48437,1.5937 -0.48438,0.7344 -1.39063,1.1406 -0.89062,0.4063 -2.01562,0.4063 -1.42188,0 -2.39063,-0.4063 -0.95312,-0.4218 -1.5,-1.25 -0.54687,-0.8281 -0.57812,-1.8906 z"
       id="path19"
       inkscape:connector-curvature="0"
       style="fill:#000000;fill-rule:nonzero" />
    <path
       d="M 710.2703,805.64439 H 661.35691"
       id="path21"
       inkscape:connector-curvature="0"
       style="fill:#000000;fill-opacity:0;fill-rule:evenodd" />
    <path
       d="M 704.2703,805.64439 H 661.35691"
       id="path23"
       inkscape:connector-curvature="0"
       style="fill-rule:evenodd;stroke:#000000;stroke-width:1;stroke-linecap:butt;stroke-linejoin:round" />
    <path
       d="m 704.2703,807.29609 4.53809,-1.6517 -4.53809,-1.6517 z"
       id="path25"
       inkscape:connector-curvature="0"
       style="fill:#000000;fill-rule:evenodd;stroke:#000000;stroke-width:1;stroke-linecap:butt" />
    <path
       d="m 489.37534,838.09759 38.94962,-64.90552 h 155.7984 l -38.94959,64.90552 z"
       id="path27"
       inkscape:connector-curvature="0"
       style="fill:#ffffff;fill-rule:evenodd" />
    <path
       d="m 489.37534,838.09759 38.94962,-64.90552 h 155.7984 l -38.94959,64.90552 z"
       id="path29"
       inkscape:connector-curvature="0"
       style="fill-rule:evenodd;stroke:#000000;stroke-width:2;stroke-linecap:butt;stroke-linejoin:round" />
    <path
       d="m 550.58966,810.72479 v -10.4844 h 4.64062 q 1.40625,0 2.14063,0.2813 0.73437,0.2812 1.17187,1 0.4375,0.7031 0.4375,1.5781 0,1.1094 -0.73437,1.875 -0.71875,0.7656 -2.23438,0.9844 0.5625,0.25 0.84375,0.5156 0.60938,0.5625 1.15625,1.3906 l 1.8125,2.8594 h -1.73437 l -1.39063,-2.1875 q -0.60937,-0.9375 -1,-1.4375 -0.39062,-0.5 -0.70312,-0.7031 -0.3125,-0.2031 -0.64063,-0.2813 -0.23437,-0.047 -0.76562,-0.047 h -1.60938 v 4.6563 z m 1.39062,-5.8594 h 2.98438 q 0.9375,0 1.46875,-0.1875 0.54687,-0.2031 0.82812,-0.6406 0.28125,-0.4375 0.28125,-0.9375 0,-0.75 -0.54687,-1.2187 -0.53125,-0.4844 -1.70313,-0.4844 h -3.3125 z m 8.02179,5.8594 4.01563,-10.4844 h 1.5 l 4.29687,10.4844 h -1.57812 l -1.23438,-3.1719 h -4.375 l -1.15625,3.1719 z m 3.01563,-4.3125 h 3.5625 l -1.09375,-2.9062 q -0.5,-1.3125 -0.75,-2.1719 -0.20313,1.0156 -0.5625,2 z m 9.20007,4.3125 -2.79687,-10.4844 h 1.4375 l 1.59375,6.875 q 0.25,1.0782 0.4375,2.1407 0.40625,-1.6875 0.46875,-1.9375 l 2,-7.0782 h 1.67187 l 1.5,5.2969 q 0.57813,1.9844 0.82813,3.7188 0.20312,-1 0.51562,-2.2813 l 1.64063,-6.7344 h 1.40625 l -2.875,10.4844 h -1.34375 l -2.20313,-8 q -0.28125,-1 -0.34375,-1.2187 -0.15625,0.7187 -0.29687,1.2187 l -2.23438,8 z m 16.06146,0 v -10.4844 h 3.625 q 1.21875,0 1.85938,0.1407 0.90625,0.2031 1.54687,0.75 0.82813,0.7031 1.23438,1.7968 0.40625,1.0938 0.40625,2.5 0,1.1875 -0.28125,2.1094 -0.26563,0.9219 -0.70313,1.5313 -0.4375,0.6093 -0.96875,0.9531 -0.51562,0.3437 -1.25,0.5312 -0.71875,0.1719 -1.67187,0.1719 z m 1.39063,-1.2344 h 2.25 q 1.03125,0 1.625,-0.1875 0.59375,-0.2031 0.9375,-0.5468 0.5,-0.5 0.76562,-1.3282 0.28125,-0.8437 0.28125,-2.0312 0,-1.6406 -0.54687,-2.5156 -0.53125,-0.8907 -1.3125,-1.1875 -0.54688,-0.2188 -1.79688,-0.2188 h -2.20312 z m 8.05304,1.2344 4.01562,-10.4844 h 1.5 l 4.29688,10.4844 h -1.57813 l -1.23437,-3.1719 h -4.375 l -1.15625,3.1719 z m 3.01562,-4.3125 h 3.5625 l -1.09375,-2.9062 q -0.5,-1.3125 -0.75,-2.1719 -0.20312,1.0156 -0.5625,2 z m 9.48395,4.3125 v -9.25 h -3.45312 v -1.2344 h 8.3125 v 1.2344 h -3.46875 v 9.25 z m 4.05158,0 4.01562,-10.4844 h 1.5 l 4.29688,10.4844 h -1.57813 l -1.23437,-3.1719 h -4.375 l -1.15625,3.1719 z m 3.01562,-4.3125 h 3.5625 l -1.09375,-2.9062 q -0.5,-1.3125 -0.75,-2.1719 -0.20312,1.0156 -0.5625,2 z"
       id="path31"
       inkscape:connector-curvature="0"
       style="fill:#000000;fill-rule:nonzero" />
    <path
       d="m 586.7297,750.06739 0.0315,23.11812"
       id="path33"
       inkscape:connector-curvature="0"
       style="fill:#000000;fill-opacity:0;fill-rule:evenodd" />
    <path
       d="m 586.7297,750.06739 0.0233,17.1181"
       id="path35"
       inkscape:connector-curvature="0"
       style="fill-rule:evenodd;stroke:#000000;stroke-width:1;stroke-linecap:butt;stroke-linejoin:round" />
    <path
       d="m 585.10126,767.18775 1.6579,4.53584 1.64557,-4.54034 z"
       id="path37"
       inkscape:connector-curvature="0"
       style="fill:#000000;fill-rule:evenodd;stroke:#000000;stroke-width:1;stroke-linecap:butt" />
    <path
       d="m 691.0084,838.09709 38.94958,-64.90548 h 155.79841 l -38.94959,64.90548 z"
       id="path39"
       inkscape:connector-curvature="0"
       style="fill:#ffffff;fill-rule:evenodd" />
    <path
       d="m 691.0084,838.09709 38.94958,-64.90548 h 155.79841 l -38.94959,64.90548 z"
       id="path41"
       inkscape:connector-curvature="0"
       style="fill-rule:evenodd;stroke:#000000;stroke-width:2;stroke-linecap:butt;stroke-linejoin:round" />
    <path
       d="m 758.52844,810.72439 v -10.4844 h 2.07813 l 2.48437,7.4219 q 0.34375,1.0312 0.5,1.5468 0.1875,-0.5625 0.5625,-1.6718 l 2.51563,-7.2969 h 1.85937 v 10.4844 h -1.32812 v -8.7813 l -3.04688,8.7813 h -1.26562 l -3.03125,-8.9375 v 8.9375 z m 11.81812,-5.1094 q 0,-2.6094 1.40625,-4.0781 1.40625,-1.4844 3.625,-1.4844 1.45312,0 2.60937,0.7031 1.17188,0.6875 1.78125,1.9219 0.60938,1.2344 0.60938,2.8125 0,1.5937 -0.64063,2.8594 -0.64062,1.2656 -1.82812,1.9062 -1.17188,0.6406 -2.54688,0.6406 -1.46875,0 -2.64062,-0.7031 -1.17188,-0.7187 -1.78125,-1.9531 -0.59375,-1.25 -0.59375,-2.625 z m 1.4375,0.016 q 0,1.9062 1.01562,3 1.01563,1.0781 2.5625,1.0781 1.5625,0 2.57813,-1.0937 1.01562,-1.1094 1.01562,-3.125 0,-1.2813 -0.4375,-2.2344 -0.4375,-0.9688 -1.26562,-1.4844 -0.82813,-0.5312 -1.875,-0.5312 -1.46875,0 -2.53125,1.0156 -1.0625,1.0156 -1.0625,3.375 z m 10.38452,5.0937 v -10.4843 h 3.625 q 1.21875,0 1.85937,0.1406 0.90625,0.2031 1.54688,0.75 0.82812,0.7031 1.23437,1.7969 0.40625,1.0937 0.40625,2.5 0,1.1875 -0.28125,2.1093 -0.26562,0.9219 -0.70312,1.5313 -0.4375,0.6094 -0.96875,0.9531 -0.51563,0.3438 -1.25,0.5313 -0.71875,0.1718 -1.67188,0.1718 z m 1.39062,-1.2343 h 2.25 q 1.03125,0 1.625,-0.1875 0.59375,-0.2032 0.9375,-0.5469 0.5,-0.5 0.76563,-1.3281 0.28125,-0.8438 0.28125,-2.0313 0,-1.6406 -0.54688,-2.5156 -0.53125,-0.8906 -1.3125,-1.1875 -0.54687,-0.2188 -1.79687,-0.2188 h -2.20313 z m 9.22486,1.2343 v -10.4843 h 7.59375 v 1.2343 h -6.20313 v 3.2032 h 5.79688 v 1.2343 h -5.79688 v 3.5782 h 6.4375 v 1.2343 z m 9.69751,0 v -10.4843 h 1.39062 v 9.25 h 5.15625 v 1.2343 z m 7.72924,-3.375 1.3125,-0.1093 q 0.0937,0.7812 0.42188,1.2968 0.34375,0.5 1.0625,0.8125 0.71875,0.3125 1.60937,0.3125 0.79688,0 1.40625,-0.2343 0.60938,-0.2344 0.90625,-0.6407 0.29688,-0.4218 0.29688,-0.9062 0,-0.5 -0.29688,-0.8594 -0.28125,-0.375 -0.9375,-0.625 -0.42187,-0.1719 -1.875,-0.5156 -1.4375,-0.3438 -2.01562,-0.6563 -0.75,-0.3906 -1.125,-0.9687 -0.35938,-0.5938 -0.35938,-1.3125 0,-0.7969 0.4375,-1.4844 0.45313,-0.6875 1.3125,-1.0469 0.875,-0.3593 1.9375,-0.3593 1.17188,0 2.0625,0.375 0.89063,0.375 1.35938,1.1093 0.48437,0.7344 0.51562,1.6563 l -1.32812,0.094 q -0.10938,-1 -0.73438,-1.5 -0.60937,-0.5156 -1.8125,-0.5156 -1.26562,0 -1.84375,0.4687 -0.57812,0.4688 -0.57812,1.1094 0,0.5625 0.42187,0.9375 0.39063,0.3594 2.07813,0.75 1.70312,0.375 2.32812,0.6562 0.92188,0.4219 1.35938,1.0782 0.4375,0.6406 0.4375,1.4843 0,0.8438 -0.48438,1.5938 -0.48437,0.7344 -1.39062,1.1406 -0.89063,0.4063 -2.01563,0.4063 -1.42187,0 -2.39062,-0.4063 -0.95313,-0.4219 -1.5,-1.25 -0.54688,-0.8281 -0.57813,-1.8906 z"
       id="path43"
       inkscape:connector-curvature="0"
       style="fill:#000000;fill-rule:nonzero" />
    <path
       d="m 586.7493,838.09759 -0.0315,28.0315"
       id="path45"
       inkscape:connector-curvature="0"
       style="fill:#000000;fill-opacity:0;fill-rule:evenodd" />
    <path
       d="m 586.7493,838.09759 -0.0248,22.0315"
       id="path47"
       inkscape:connector-curvature="0"
       style="fill-rule:evenodd;stroke:#000000;stroke-width:1;stroke-linecap:butt;stroke-linejoin:round" />
    <path
       d="m 585.0729,860.12719 1.64661,4.54 1.65686,-4.5363 z"
       id="path49"
       inkscape:connector-curvature="0"
       style="fill:#000000;fill-rule:evenodd;stroke:#000000;stroke-width:1;stroke-linecap:butt" />
    <path
       d="m 489.37402,1015.1102 38.94958,-64.90551 h 155.79846 l -38.94964,64.90551 z"
       id="path51"
       inkscape:connector-curvature="0"
       style="fill:#ffffff;fill-rule:evenodd" />
    <path
       d="m 489.37402,1015.1102 38.94958,-64.90551 h 155.79846 l -38.94964,64.90551 z"
       id="path53"
       inkscape:connector-curvature="0"
       style="fill-rule:evenodd;stroke:#000000;stroke-width:2;stroke-linecap:butt;stroke-linejoin:round" />
    <path
       d="m 540.5022,974.73749 v -10.4844 h 3.625 q 1.21875,0 1.85938,0.1407 0.90625,0.2031 1.54687,0.75 0.82813,0.7031 1.23438,1.7968 0.40625,1.0938 0.40625,2.5 0,1.1875 -0.28125,2.1094 -0.26563,0.9219 -0.70313,1.5313 -0.4375,0.6093 -0.96875,0.9531 -0.51562,0.3437 -1.25,0.5312 -0.71875,0.1719 -1.67187,0.1719 z m 1.39063,-1.2344 h 2.25 q 1.03125,0 1.625,-0.1875 0.59375,-0.2031 0.9375,-0.5468 0.5,-0.5 0.76562,-1.3282 0.28125,-0.8437 0.28125,-2.0312 0,-1.6406 -0.54687,-2.5156 -0.53125,-0.8907 -1.3125,-1.1875 -0.54688,-0.2188 -1.79688,-0.2188 h -2.20312 z m 9.22491,1.2344 v -10.4844 h 7.59375 v 1.2344 h -6.20312 v 3.2031 h 5.79687 v 1.2344 h -5.79687 v 3.5781 h 6.4375 v 1.2344 z m 9.77557,0 v -10.4844 h 4.64063 q 1.40625,0 2.14062,0.2813 0.73438,0.2812 1.17188,1 0.4375,0.7031 0.4375,1.5781 0,1.1094 -0.73438,1.875 -0.71875,0.7656 -2.23437,0.9844 0.5625,0.25 0.84375,0.5156 0.60937,0.5625 1.15625,1.3906 l 1.8125,2.8594 h -1.73438 l -1.39062,-2.1875 q -0.60938,-0.9375 -1,-1.4375 -0.39063,-0.5 -0.70313,-0.7031 -0.3125,-0.2031 -0.64062,-0.2813 -0.23438,-0.047 -0.76563,-0.047 h -1.60937 v 4.6563 z m 1.39063,-5.8594 h 2.98437 q 0.9375,0 1.46875,-0.1875 0.54688,-0.2031 0.82813,-0.6406 0.28125,-0.4375 0.28125,-0.9375 0,-0.75 -0.54688,-1.2187 -0.53125,-0.4844 -1.70312,-0.4844 h -3.3125 z m 9.39679,5.8594 v -10.4844 h 1.39062 v 10.4844 z m 6.83758,0 -4.0625,-10.4844 h 1.5 l 2.73438,7.6094 q 0.32812,0.9219 0.54687,1.7188 0.25,-0.8594 0.5625,-1.7188 l 2.84375,-7.6094 h 1.40625 l -4.10937,10.4844 z m 4.54645,0 4.01563,-10.4844 h 1.5 l 4.29687,10.4844 h -1.57812 l -1.23438,-3.1719 h -4.375 l -1.15625,3.1719 z m 3.01563,-4.3125 h 3.5625 l -1.09375,-2.9062 q -0.5,-1.3125 -0.75,-2.1719 -0.20313,1.0156 -0.5625,2 z m 9.48395,4.3125 v -9.25 h -3.45313 v -1.2344 h 8.3125 v 1.2344 h -3.46875 v 9.25 z m 6.51513,0 v -10.4844 h 1.39063 v 10.4844 z m 6.83759,0 -4.0625,-10.4844 h 1.5 l 2.73437,7.6094 q 0.32813,0.9219 0.54688,1.7188 0.25,-0.8594 0.5625,-1.7188 l 2.84375,-7.6094 h 1.40625 l -4.10938,10.4844 z m 6.80682,0 v -10.4844 h 7.59375 v 1.2344 h -6.20312 v 3.2031 h 5.79687 v 1.2344 h -5.79687 v 3.5781 h 6.4375 v 1.2344 z m 9.27564,-3.375 1.3125,-0.1094 q 0.0937,0.7813 0.42187,1.2969 0.34375,0.5 1.0625,0.8125 0.71875,0.3125 1.60938,0.3125 0.79687,0 1.40625,-0.2344 0.60937,-0.2343 0.90625,-0.6406 0.29687,-0.4219 0.29687,-0.9062 0,-0.5 -0.29687,-0.8594 -0.28125,-0.375 -0.9375,-0.625 -0.42188,-0.1719 -1.875,-0.5156 -1.4375,-0.3438 -2.01563,-0.6563 -0.75,-0.3906 -1.125,-0.9687 -0.35937,-0.5938 -0.35937,-1.3125 0,-0.7969 0.4375,-1.4844 0.45312,-0.6875 1.3125,-1.0469 0.875,-0.3594 1.9375,-0.3594 1.17187,0 2.0625,0.375 0.89062,0.375 1.35937,1.1094 0.48438,0.7344 0.51563,1.6563 l -1.32813,0.094 q -0.10937,-1 -0.73437,-1.5 -0.60938,-0.5157 -1.8125,-0.5157 -1.26563,0 -1.84375,0.4688 -0.57813,0.4687 -0.57813,1.1094 0,0.5625 0.42188,0.9375 0.39062,0.3593 2.07812,0.75 1.70313,0.375 2.32813,0.6562 0.92187,0.4219 1.35937,1.0781 0.4375,0.6407 0.4375,1.4844 0,0.8438 -0.48437,1.5938 -0.48438,0.7343 -1.39063,1.1406 -0.89062,0.4062 -2.01562,0.4062 -1.42188,0 -2.39063,-0.4062 -0.95312,-0.4219 -1.5,-1.25 -0.54687,-0.8281 -0.57812,-1.8906 z"
       id="path55"
       inkscape:connector-curvature="0"
       style="fill:#000000;fill-rule:nonzero" />
    <path
       d="m 542.7544,991.14749 q -0.78125,-0.9844 -1.32812,-2.2969 -0.53125,-1.3125 -0.53125,-2.7187 0,-1.2344 0.40625,-2.375 0.46875,-1.3125 1.45312,-2.625 h 0.65625 q -0.625,1.0937 -0.82812,1.5469 -0.3125,0.7187 -0.5,1.5 -0.21875,0.9843 -0.21875,1.9687 0,2.5 1.54687,5 z m 1.75177,-0.125 v -7.6562 h 0.85937 v 0.7187 q 0.29688,-0.4219 0.67188,-0.625 0.39062,-0.2187 0.92187,-0.2187 0.70313,0 1.25,0.375 0.54688,0.3593 0.8125,1.0312 0.28125,0.6563 0.28125,1.4531 0,0.8438 -0.3125,1.5313 -0.29687,0.6719 -0.875,1.0312 -0.57812,0.3594 -1.21875,0.3594 -0.46875,0 -0.84375,-0.1875 -0.375,-0.2031 -0.60937,-0.5156 v 2.7031 z m 0.84375,-4.8594 q 0,1.0625 0.4375,1.5782 0.4375,0.5156 1.04687,0.5156 0.625,0 1.0625,-0.5313 0.45313,-0.5312 0.45313,-1.6406 0,-1.0469 -0.4375,-1.5781 -0.4375,-0.5313 -1.04688,-0.5313 -0.59375,0 -1.0625,0.5625 -0.45312,0.5625 -0.45312,1.625 z m 5.06714,2.7344 v -5.5312 h 0.84375 v 0.8437 q 0.32812,-0.5937 0.59375,-0.7812 0.28125,-0.1875 0.60937,-0.1875 0.46875,0 0.95313,0.3125 l -0.3125,0.8593 q -0.34375,-0.2031 -0.6875,-0.2031 -0.3125,0 -0.5625,0.1875 -0.23438,0.1875 -0.34375,0.5156 -0.15625,0.5 -0.15625,1.0938 v 2.8906 z m 7.34546,-1.7812 0.96875,0.125 q -0.23438,0.8437 -0.85938,1.3125 -0.60937,0.4687 -1.57812,0.4687 -1.20313,0 -1.92188,-0.75 -0.70312,-0.75 -0.70312,-2.0937 0,-1.3907 0.71875,-2.1563 0.71875,-0.7812 1.85937,-0.7812 1.10938,0 1.8125,0.7656 0.70313,0.75 0.70313,2.125 0,0.078 0,0.2344 h -4.125 q 0.0469,0.9218 0.51562,1.4062 0.46875,0.4844 1.15625,0.4844 0.51563,0 0.875,-0.2656 0.35938,-0.2813 0.57813,-0.875 z m -3.07813,-1.5157 h 3.09375 q -0.0625,-0.6875 -0.35937,-1.0468 -0.45313,-0.5313 -1.15625,-0.5313 -0.64063,0 -1.09375,0.4375 -0.4375,0.4219 -0.48438,1.1406 z m 5.22339,5.4219 v -7.6562 h 0.85938 v 0.7187 q 0.29687,-0.4219 0.67187,-0.625 0.39063,-0.2187 0.92188,-0.2187 0.70312,0 1.25,0.375 0.54687,0.3593 0.8125,1.0312 0.28125,0.6563 0.28125,1.4531 0,0.8438 -0.3125,1.5313 -0.29688,0.6719 -0.875,1.0312 -0.57813,0.3594 -1.21875,0.3594 -0.46875,0 -0.84375,-0.1875 -0.375,-0.2031 -0.60938,-0.5156 v 2.7031 z m 0.84375,-4.8594 q 0,1.0625 0.4375,1.5782 0.4375,0.5156 1.04688,0.5156 0.625,0 1.0625,-0.5313 0.45312,-0.5312 0.45312,-1.6406 0,-1.0469 -0.4375,-1.5781 -0.4375,-0.5313 -1.04687,-0.5313 -0.59375,0 -1.0625,0.5625 -0.45313,0.5625 -0.45313,1.625 z m 5.06714,2.7344 v -5.5312 h 0.84375 v 0.8437 q 0.32813,-0.5937 0.59375,-0.7812 0.28125,-0.1875 0.60938,-0.1875 0.46875,0 0.95312,0.3125 l -0.3125,0.8593 q -0.34375,-0.2031 -0.6875,-0.2031 -0.3125,0 -0.5625,0.1875 -0.23437,0.1875 -0.34375,0.5156 -0.15625,0.5 -0.15625,1.0938 v 2.8906 z m 3.22046,-2.7656 q 0,-1.5313 0.84375,-2.2656 0.71875,-0.625 1.73437,-0.625 1.14063,0 1.85938,0.75 0.73437,0.75 0.73437,2.0625 0,1.0625 -0.32812,1.6875 -0.3125,0.6093 -0.92188,0.9531 -0.60937,0.3281 -1.34375,0.3281 -1.15625,0 -1.875,-0.7344 -0.70312,-0.75 -0.70312,-2.1562 z m 0.95312,0 q 0,1.0625 0.46875,1.5937 0.46875,0.5313 1.15625,0.5313 0.70313,0 1.15625,-0.5313 0.46875,-0.5312 0.46875,-1.625 0,-1.0156 -0.46875,-1.5468 -0.45312,-0.5313 -1.15625,-0.5313 -0.6875,0 -1.15625,0.5313 -0.46875,0.5156 -0.46875,1.5781 z m 8.92652,0.7344 0.92187,0.125 q -0.15625,0.9531 -0.78125,1.5 -0.625,0.5312 -1.53125,0.5312 -1.125,0 -1.8125,-0.7344 -0.6875,-0.75 -0.6875,-2.125 0,-0.9062 0.29688,-1.5781 0.29687,-0.6719 0.89062,-1 0.60938,-0.3437 1.32813,-0.3437 0.89062,0 1.46875,0.4687 0.57812,0.4531 0.73437,1.2813 l -0.90625,0.1406 q -0.14062,-0.5469 -0.46875,-0.8281 -0.32812,-0.2813 -0.79687,-0.2813 -0.70313,0 -1.15625,0.5156 -0.4375,0.5 -0.4375,1.5938 0,1.1094 0.42187,1.625 0.4375,0.5 1.125,0.5 0.54688,0 0.90625,-0.3438 0.375,-0.3437 0.48438,-1.0468 z m 5.5,0.25 0.96875,0.125 q -0.23438,0.8437 -0.85938,1.3125 -0.60937,0.4687 -1.57812,0.4687 -1.20313,0 -1.92188,-0.75 -0.70312,-0.75 -0.70312,-2.0937 0,-1.3907 0.71875,-2.1563 0.71875,-0.7812 1.85937,-0.7812 1.10938,0 1.8125,0.7656 0.70313,0.75 0.70313,2.125 0,0.078 0,0.2344 h -4.125 q 0.0469,0.9218 0.51562,1.4062 0.46875,0.4844 1.15625,0.4844 0.51563,0 0.875,-0.2656 0.35938,-0.2813 0.57813,-0.875 z m -3.07813,-1.5157 h 3.09375 q -0.0625,-0.6875 -0.35937,-1.0468 -0.45313,-0.5313 -1.15625,-0.5313 -0.64063,0 -1.09375,0.4375 -0.4375,0.4219 -0.48438,1.1406 z m 4.84839,1.6407 0.92188,-0.1407 q 0.0781,0.5625 0.4375,0.8594 0.35937,0.2969 1,0.2969 0.64062,0 0.95312,-0.2656 0.3125,-0.2657 0.3125,-0.625 0,-0.3125 -0.28125,-0.5 -0.1875,-0.125 -0.95312,-0.3125 -1.03125,-0.2657 -1.4375,-0.4532 -0.39063,-0.1875 -0.59375,-0.5156 -0.20313,-0.3437 -0.20313,-0.75 0,-0.3594 0.17188,-0.6719 0.17187,-0.3281 0.45312,-0.5312 0.21875,-0.1563 0.59375,-0.2656 0.39063,-0.125 0.8125,-0.125 0.65625,0 1.14063,0.1875 0.5,0.1875 0.73437,0.5156 0.23438,0.3125 0.3125,0.8594 l -0.90625,0.125 q -0.0625,-0.4375 -0.375,-0.6719 -0.29687,-0.2344 -0.82812,-0.2344 -0.65625,0 -0.9375,0.2188 -0.26563,0.2031 -0.26563,0.4843 0,0.1875 0.10938,0.3282 0.125,0.1562 0.35937,0.25 0.14063,0.062 0.82813,0.25 1,0.2656 1.39062,0.4375 0.39063,0.1562 0.60938,0.4843 0.23437,0.3125 0.23437,0.7969 0,0.4688 -0.28125,0.8906 -0.26562,0.4063 -0.78125,0.6407 -0.51562,0.2187 -1.17187,0.2187 -1.07813,0 -1.64063,-0.4375 -0.5625,-0.4531 -0.71875,-1.3437 z m 5.32813,0 0.92187,-0.1407 q 0.0781,0.5625 0.4375,0.8594 0.35938,0.2969 1,0.2969 0.64063,0 0.95313,-0.2656 0.3125,-0.2657 0.3125,-0.625 0,-0.3125 -0.28125,-0.5 -0.1875,-0.125 -0.95313,-0.3125 -1.03125,-0.2657 -1.4375,-0.4532 -0.39062,-0.1875 -0.59375,-0.5156 -0.20312,-0.3437 -0.20312,-0.75 0,-0.3594 0.17187,-0.6719 0.17188,-0.3281 0.45313,-0.5312 0.21875,-0.1563 0.59375,-0.2656 0.39062,-0.125 0.8125,-0.125 0.65625,0 1.14062,0.1875 0.5,0.1875 0.73438,0.5156 0.23437,0.3125 0.3125,0.8594 l -0.90625,0.125 q -0.0625,-0.4375 -0.375,-0.6719 -0.29688,-0.2344 -0.82813,-0.2344 -0.65625,0 -0.9375,0.2188 -0.26562,0.2031 -0.26562,0.4843 0,0.1875 0.10937,0.3282 0.125,0.1562 0.35938,0.25 0.14062,0.062 0.82812,0.25 1,0.2656 1.39063,0.4375 0.39062,0.1562 0.60937,0.4843 0.23438,0.3125 0.23438,0.7969 0,0.4688 -0.28125,0.8906 -0.26563,0.4063 -0.78125,0.6407 -0.51563,0.2187 -1.17188,0.2187 -1.07812,0 -1.64062,-0.4375 -0.5625,-0.4531 -0.71875,-1.3437 z m 9.48437,-0.125 0.96875,0.125 q -0.23437,0.8437 -0.85937,1.3125 -0.60938,0.4687 -1.57813,0.4687 -1.20312,0 -1.92187,-0.75 -0.70313,-0.75 -0.70313,-2.0937 0,-1.3907 0.71875,-2.1563 0.71875,-0.7812 1.85938,-0.7812 1.10937,0 1.8125,0.7656 0.70312,0.75 0.70312,2.125 0,0.078 0,0.2344 h -4.125 q 0.0469,0.9218 0.51563,1.4062 0.46875,0.4844 1.15625,0.4844 0.51562,0 0.875,-0.2656 0.35937,-0.2813 0.57812,-0.875 z m -3.07812,-1.5157 h 3.09375 q -0.0625,-0.6875 -0.35938,-1.0468 -0.45312,-0.5313 -1.15625,-0.5313 -0.64062,0 -1.09375,0.4375 -0.4375,0.4219 -0.48437,1.1406 z m 8.80145,3.2969 v -0.7031 q -0.51563,0.8281 -1.54688,0.8281 -0.65625,0 -1.21875,-0.3594 -0.54687,-0.375 -0.85937,-1.0156 -0.29688,-0.6562 -0.29688,-1.5 0,-0.8281 0.28125,-1.5 0.28125,-0.6875 0.82813,-1.0469 0.54687,-0.3593 1.23437,-0.3593 0.5,0 0.89063,0.2187 0.39062,0.2031 0.625,0.5469 v -2.7344 h 0.9375 v 7.625 z m -2.95313,-2.75 q 0,1.0469 0.4375,1.5781 0.45313,0.5313 1.0625,0.5313 0.60938,0 1.03125,-0.5 0.4375,-0.5156 0.4375,-1.5313 0,-1.1406 -0.4375,-1.6718 -0.4375,-0.5313 -1.07812,-0.5313 -0.60938,0 -1.03125,0.5156 -0.42188,0.5 -0.42188,1.6094 z m 8.4809,2.75 v -4.7969 h -0.82812 v -0.7343 h 0.82812 v -0.5782 q 0,-0.5625 0.10938,-0.8281 0.125,-0.375 0.46875,-0.5937 0.34375,-0.2344 0.95312,-0.2344 0.39063,0 0.875,0.094 l -0.14062,0.8281 q -0.29688,-0.062 -0.54688,-0.062 -0.42187,0 -0.60937,0.1875 -0.17188,0.1875 -0.17188,0.6875 v 0.5 h 1.07813 v 0.7344 h -1.07813 v 4.7969 z m 2.74194,-6.5469 v -1.0781 h 0.9375 v 1.0781 z m 0,6.5469 v -5.5312 h 0.9375 v 5.5312 z m 2.35181,0 v -7.625 h 0.9375 v 7.625 z m 6.16437,-1.7812 0.96875,0.125 q -0.23438,0.8437 -0.85938,1.3125 -0.60937,0.4687 -1.57812,0.4687 -1.20313,0 -1.92188,-0.75 -0.70312,-0.75 -0.70312,-2.0937 0,-1.3907 0.71875,-2.1563 0.71875,-0.7812 1.85937,-0.7812 1.10938,0 1.8125,0.7656 0.70313,0.75 0.70313,2.125 0,0.078 0,0.2344 h -4.125 q 0.0469,0.9218 0.51562,1.4062 0.46875,0.4844 1.15625,0.4844 0.51563,0 0.875,-0.2656 0.35938,-0.2813 0.57813,-0.875 z m -3.07813,-1.5157 h 3.09375 q -0.0625,-0.6875 -0.35937,-1.0468 -0.45313,-0.5313 -1.15625,-0.5313 -0.64063,0 -1.09375,0.4375 -0.4375,0.4219 -0.48438,1.1406 z m 4.84839,1.6407 0.92188,-0.1407 q 0.0781,0.5625 0.4375,0.8594 0.35937,0.2969 1,0.2969 0.64062,0 0.95312,-0.2656 0.3125,-0.2657 0.3125,-0.625 0,-0.3125 -0.28125,-0.5 -0.1875,-0.125 -0.95312,-0.3125 -1.03125,-0.2657 -1.4375,-0.4532 -0.39063,-0.1875 -0.59375,-0.5156 -0.20313,-0.3437 -0.20313,-0.75 0,-0.3594 0.17188,-0.6719 0.17187,-0.3281 0.45312,-0.5312 0.21875,-0.1563 0.59375,-0.2656 0.39063,-0.125 0.8125,-0.125 0.65625,0 1.14063,0.1875 0.5,0.1875 0.73437,0.5156 0.23438,0.3125 0.3125,0.8594 l -0.90625,0.125 q -0.0625,-0.4375 -0.375,-0.6719 -0.29687,-0.2344 -0.82812,-0.2344 -0.65625,0 -0.9375,0.2188 -0.26563,0.2031 -0.26563,0.4843 0,0.1875 0.10938,0.3282 0.125,0.1562 0.35937,0.25 0.14063,0.062 0.82813,0.25 1,0.2656 1.39062,0.4375 0.39063,0.1562 0.60938,0.4843 0.23437,0.3125 0.23437,0.7969 0,0.4688 -0.28125,0.8906 -0.26562,0.4063 -0.78125,0.6407 -0.51562,0.2187 -1.17187,0.2187 -1.07813,0 -1.64063,-0.4375 -0.5625,-0.4531 -0.71875,-1.3437 z m 5.95313,1.6562 v -1.0625 h 1.0625 v 1.0625 q 0,0.5938 -0.21875,0.9531 -0.20313,0.3594 -0.65625,0.5625 l -0.25,-0.4062 q 0.29687,-0.125 0.4375,-0.3906 0.14062,-0.25 0.15625,-0.7188 z"
       id="path57"
       inkscape:connector-curvature="0"
       style="fill:#000000;fill-rule:nonzero" />
    <path
       d="m 558.12305,1001.8975 v -5.53121 h 0.84375 v 0.8437 q 0.32813,-0.5937 0.59375,-0.7812 0.28125,-0.1875 0.60938,-0.1875 0.46875,0 0.95312,0.3125 l -0.3125,0.8593 q -0.34375,-0.2031 -0.6875,-0.2031 -0.3125,0 -0.5625,0.1875 -0.23437,0.1875 -0.34375,0.5156 -0.15625,0.5 -0.15625,1.0938 v 2.89061 z m 7.34546,-1.7813 0.96875,0.125 q -0.23438,0.8438 -0.85938,1.3125 -0.60937,0.4688 -1.57812,0.4688 -1.20313,0 -1.92188,-0.75 -0.70312,-0.75 -0.70312,-2.09371 0,-1.3907 0.71875,-2.1563 0.71875,-0.7812 1.85937,-0.7812 1.10938,0 1.8125,0.7656 0.70313,0.75 0.70313,2.125 0,0.078 0,0.2344 h -4.125 q 0.0469,0.92181 0.51562,1.40621 0.46875,0.4844 1.15625,0.4844 0.51563,0 0.875,-0.2657 0.35938,-0.2812 0.57813,-0.875 z m -3.07813,-1.51561 h 3.09375 q -0.0625,-0.6875 -0.35937,-1.0468 -0.45313,-0.5313 -1.15625,-0.5313 -0.64063,0 -1.09375,0.4375 -0.4375,0.4219 -0.48438,1.1406 z m 4.84839,1.64061 0.92188,-0.1406 q 0.0781,0.5625 0.4375,0.8594 0.35937,0.2969 1,0.2969 0.64062,0 0.95312,-0.2657 0.3125,-0.2656 0.3125,-0.625 0,-0.3125 -0.28125,-0.49991 -0.1875,-0.125 -0.95312,-0.3125 -1.03125,-0.2657 -1.4375,-0.4532 -0.39063,-0.1875 -0.59375,-0.5156 -0.20313,-0.3437 -0.20313,-0.75 0,-0.3594 0.17188,-0.6719 0.17187,-0.3281 0.45312,-0.5312 0.21875,-0.1563 0.59375,-0.2656 0.39063,-0.125 0.8125,-0.125 0.65625,0 1.14063,0.1875 0.5,0.1875 0.73437,0.5156 0.23438,0.3125 0.3125,0.8594 l -0.90625,0.125 q -0.0625,-0.4375 -0.375,-0.6719 -0.29687,-0.2344 -0.82812,-0.2344 -0.65625,0 -0.9375,0.2188 -0.26563,0.2031 -0.26563,0.4843 0,0.1875 0.10938,0.3282 0.125,0.1562 0.35937,0.25 0.14063,0.062 0.82813,0.25 1,0.2656 1.39062,0.4375 0.39063,0.1562 0.60938,0.4843 0.23437,0.3125 0.23437,0.79691 0,0.4687 -0.28125,0.8906 -0.26562,0.4063 -0.78125,0.6406 -0.51562,0.2188 -1.17187,0.2188 -1.07813,0 -1.64063,-0.4375 -0.5625,-0.4531 -0.71875,-1.3438 z m 9.32813,1.6563 v -0.8125 q -0.65625,0.9375 -1.75,0.9375 -0.5,0 -0.92188,-0.1875 -0.42187,-0.1875 -0.625,-0.4688 -0.20312,-0.2812 -0.29687,-0.7031 -0.0469,-0.2656 -0.0469,-0.87501 v -3.4218 h 0.9375 v 3.0625 q 0,0.73431 0.0469,0.99991 0.0937,0.3594 0.375,0.5782 0.29687,0.2031 0.70312,0.2031 0.42188,0 0.79688,-0.2031 0.375,-0.2188 0.51562,-0.5938 0.15625,-0.375 0.15625,-1.07811 v -2.9687 h 0.9375 v 5.53121 z m 2.28589,0 v -7.62501 h 0.9375 v 7.62501 z m 4.42999,-0.8438 0.125,0.8282 q -0.39063,0.094 -0.70313,0.094 -0.5,0 -0.78125,-0.1563 -0.28125,-0.1719 -0.40625,-0.4375 -0.10937,-0.2656 -0.10937,-1.1094 v -3.17181 h -0.6875 v -0.7344 h 0.6875 v -1.3594 l 0.9375,-0.5625 v 1.9219 h 0.9375 v 0.7344 h -0.9375 v 3.23431 q 0,0.3907 0.0469,0.5157 0.0469,0.1093 0.15625,0.1875 0.10938,0.062 0.32813,0.062 0.15625,0 0.40625,-0.047 z m 3.87439,0.8438 v -5.53121 h 0.84375 v 0.7812 q 0.25,-0.4062 0.6875,-0.6562 0.4375,-0.25 0.98437,-0.25 0.60938,0 1,0.2656 0.39063,0.25 0.5625,0.7031 0.65625,-0.9687 1.70313,-0.9687 0.82812,0 1.26562,0.4687 0.4375,0.4531 0.4375,1.3906 v 3.79691 h -0.92187 v -3.48441 q 0,-0.5625 -0.0937,-0.7968 -0.0937,-0.25 -0.34375,-0.4063 -0.23438,-0.1562 -0.54688,-0.1562 -0.59375,0 -0.98437,0.3906 -0.375,0.3906 -0.375,1.25 v 3.20311 h -0.9375 v -3.59371 q 0,-0.625 -0.23438,-0.9375 -0.21875,-0.3125 -0.75,-0.3125 -0.39062,0 -0.73437,0.2187 -0.32813,0.2031 -0.48438,0.6094 -0.14062,0.3906 -0.14062,1.1562 v 2.85941 z m 12.48614,-0.6875 q -0.53125,0.4531 -1.01562,0.6406 -0.46875,0.1719 -1.01563,0.1719 -0.92187,0 -1.40625,-0.4375 -0.48437,-0.4531 -0.48437,-1.1406 0,-0.4063 0.17187,-0.73441 0.1875,-0.3437 0.48438,-0.5469 0.3125,-0.2031 0.6875,-0.3125 0.26562,-0.062 0.82812,-0.1406 1.125,-0.125 1.67188,-0.3125 0,-0.2031 0,-0.25 0,-0.5781 -0.26563,-0.8125 -0.35937,-0.3125 -1.0625,-0.3125 -0.65625,0 -0.98437,0.2344 -0.3125,0.2344 -0.45313,0.8125 l -0.92187,-0.125 q 0.125,-0.5781 0.40625,-0.9375 0.29687,-0.375 0.82812,-0.5625 0.54688,-0.2031 1.25,-0.2031 0.71875,0 1.15625,0.1718 0.4375,0.1719 0.64063,0.4219 0.21875,0.25 0.29687,0.6406 0.0469,0.2344 0.0469,0.8594 v 1.25 q 0,1.29691 0.0625,1.65621 0.0625,0.3438 0.23437,0.6563 h -0.96875 q -0.15625,-0.2969 -0.1875,-0.6875 z m -0.0781,-2.07811 q -0.51563,0.2031 -1.53125,0.3437 -0.57813,0.078 -0.82813,0.1875 -0.23437,0.1094 -0.35937,0.3125 -0.125,0.18751 -0.125,0.43751 0,0.375 0.28125,0.625 0.28125,0.25 0.82812,0.25 0.53125,0 0.95313,-0.2344 0.42187,-0.2343 0.625,-0.6562 0.15625,-0.3125 0.15625,-0.93751 z m 2.3952,4.89061 v -7.65621 h 0.85938 v 0.7187 q 0.29687,-0.4219 0.67187,-0.625 0.39063,-0.2187 0.92188,-0.2187 0.70312,0 1.25,0.375 0.54687,0.3593 0.8125,1.0312 0.28125,0.6563 0.28125,1.4531 0,0.8438 -0.3125,1.53131 -0.29688,0.6718 -0.875,1.0312 -0.57813,0.3594 -1.21875,0.3594 -0.46875,0 -0.84375,-0.1875 -0.375,-0.2031 -0.60938,-0.5156 v 2.7031 z m 0.84375,-4.85941 q 0,1.06251 0.4375,1.57811 0.4375,0.5157 1.04688,0.5157 0.625,0 1.0625,-0.5313 0.45312,-0.5312 0.45312,-1.64061 0,-1.0469 -0.4375,-1.5781 -0.4375,-0.5313 -1.04687,-0.5313 -0.59375,0 -1.0625,0.5625 -0.45313,0.5625 -0.45313,1.625 z m 4.70776,1.07811 0.92188,-0.1406 q 0.0781,0.5625 0.4375,0.8594 0.35937,0.2969 1,0.2969 0.64062,0 0.95312,-0.2657 0.3125,-0.2656 0.3125,-0.625 0,-0.3125 -0.28125,-0.49991 -0.1875,-0.125 -0.95312,-0.3125 -1.03125,-0.2657 -1.4375,-0.4532 -0.39063,-0.1875 -0.59375,-0.5156 -0.20313,-0.3437 -0.20313,-0.75 0,-0.3594 0.17188,-0.6719 0.17187,-0.3281 0.45312,-0.5312 0.21875,-0.1563 0.59375,-0.2656 0.39063,-0.125 0.8125,-0.125 0.65625,0 1.14063,0.1875 0.5,0.1875 0.73437,0.5156 0.23438,0.3125 0.3125,0.8594 l -0.90625,0.125 q -0.0625,-0.4375 -0.375,-0.6719 -0.29687,-0.2344 -0.82812,-0.2344 -0.65625,0 -0.9375,0.2188 -0.26563,0.2031 -0.26563,0.4843 0,0.1875 0.10938,0.3282 0.125,0.1562 0.35937,0.25 0.14063,0.062 0.82813,0.25 1,0.2656 1.39062,0.4375 0.39063,0.1562 0.60938,0.4843 0.23437,0.3125 0.23437,0.79691 0,0.4687 -0.28125,0.8906 -0.26562,0.4063 -0.78125,0.6406 -0.51562,0.2188 -1.17187,0.2188 -1.07813,0 -1.64063,-0.4375 -0.5625,-0.4531 -0.71875,-1.3438 z m 6.3125,3.9063 h -0.67187 q 1.5625,-2.5 1.5625,-5.00001 0,-0.9844 -0.21875,-1.9531 -0.1875,-0.7813 -0.5,-1.5 -0.20313,-0.4688 -0.84375,-1.5625 h 0.67187 q 0.98438,1.3125 1.45313,2.625 0.39062,1.1406 0.39062,2.375 0,1.40621 -0.53125,2.71871 -0.53125,1.3125 -1.3125,2.2969 z"
       id="path59"
       inkscape:connector-curvature="0"
       style="fill:#000000;fill-rule:nonzero" />
    <path
       d="m 586.7297,931.04729 0.0315,19.1496"
       id="path61"
       inkscape:connector-curvature="0"
       style="fill:#000000;fill-opacity:0;fill-rule:evenodd" />
    <path
       d="m 586.7297,931.04729 0.0216,13.1496"
       id="path63"
       inkscape:connector-curvature="0"
       style="fill-rule:evenodd;stroke:#000000;stroke-width:1;stroke-linecap:butt;stroke-linejoin:round" />
    <path
       d="m 585.09955,944.19959 1.65918,4.5354 1.64429,-4.5408 z"
       id="path65"
       inkscape:connector-curvature="0"
       style="fill:#000000;fill-rule:evenodd;stroke:#000000;stroke-width:1;stroke-linecap:butt" />
    <path
       d="m 489.37534,1043.7263 h 79.69003 v 36.9256 c -39.84283,0 -39.84283,14.2072 -79.69003,7.1036 z m 6.56549,0 v -4.7872 h 79.14578 v 37.1573 c -3.00848,0 -6.02124,0.2573 -6.02124,0.2573 v -32.6274 z m 6.1712,-4.7872 v -4.6714 h 79.83151 v 37.0415 c -3.42846,0 -6.85693,0.193 -6.85693,0.193 v -32.5631 z"
       id="path67"
       inkscape:connector-curvature="0"
       style="fill:#ffffff;fill-rule:evenodd" />
    <path
       d="m 489.37534,1043.7263 h 79.69003 v 36.9256 c -39.84283,0 -39.84283,14.2072 -79.69003,7.1036 z m 6.56549,0 v -4.7872 h 79.14578 v 37.1573 c -3.00848,0 -6.02124,0.2573 -6.02124,0.2573 m -66.95334,-37.4146 v -4.6714 h 79.83151 v 37.0415 c -3.42847,0 -6.85693,0.193 -6.85693,0.193"
       id="path69"
       inkscape:connector-curvature="0"
       style="fill:#000000;fill-opacity:0;fill-rule:evenodd" />
    <path
       d="m 489.37534,1087.7555 c 39.8472,7.1036 39.8472,-7.1036 79.69003,-7.1036 v -4.2981 c 0,0 3.01276,-0.2574 6.02124,-0.2574 v -4.5942 c 0,0 3.42847,-0.193 6.85693,-0.193 v -37.0415 h -79.83151 v 4.6714 h -6.1712 v 4.7872 h -6.56549 z"
       id="path71"
       inkscape:connector-curvature="0"
       style="fill:#000000;fill-opacity:0;fill-rule:evenodd" />
    <path
       d="m 489.37534,1043.7263 h 79.69003 v 36.9256 c -39.84283,0 -39.84283,14.2072 -79.69003,7.1036 z m 6.56549,0 v -4.7872 h 79.14578 v 37.1573 c -3.00848,0 -6.02124,0.2573 -6.02124,0.2573 m -66.95334,-37.4146 v -4.6714 h 79.83151 v 37.0415 c -3.42847,0 -6.85693,0.193 -6.85693,0.193"
       id="path73"
       inkscape:connector-curvature="0"
       style="fill-rule:evenodd;stroke:#000000;stroke-width:2;stroke-linecap:butt;stroke-linejoin:round" />
    <path
       d="m 499.2972,1070.2609 v -8.5938 h 3.25 q 0.84375,0 1.29687,0.078 0.64063,0.1094 1.0625,0.4063 0.4375,0.2968 0.6875,0.8281 0.26563,0.5312 0.26563,1.1719 0,1.0937 -0.70313,1.8593 -0.6875,0.7501 -2.51562,0.7501 h -2.20313 v 3.5 z m 1.14062,-4.5 h 2.21875 q 1.10938,0 1.5625,-0.4063 0.46875,-0.4219 0.46875,-1.1719 0,-0.5312 -0.28125,-0.9062 -0.26562,-0.3906 -0.70312,-0.5156 -0.29688,-0.078 -1.0625,-0.078 h -2.20313 z m 5.03516,4.5 3.29688,-8.5938 h 1.21875 l 3.51559,8.5938 h -1.28125 l -1.01559,-2.6094 h -3.57813 l -0.95312,2.6094 z m 2.48438,-3.5313 h 2.90625 l -0.89063,-2.375 q -0.42187,-1.0781 -0.60937,-1.7812 -0.17188,0.8281 -0.46875,1.6406 z m 6.457,3.5313 v -8.5938 h 3.25 q 0.84375,0 1.29687,0.078 0.64063,0.1094 1.0625,0.4063 0.4375,0.2968 0.6875,0.8281 0.26563,0.5312 0.26563,1.1719 0,1.0937 -0.70313,1.8593 -0.6875,0.7501 -2.51562,0.7501 h -2.20313 v 3.5 z m 1.14062,-4.5 h 2.21875 q 1.10938,0 1.5625,-0.4063 0.46875,-0.4219 0.46875,-1.1719 0,-0.5312 -0.28125,-0.9062 -0.26562,-0.3906 -0.70312,-0.5156 -0.29688,-0.078 -1.0625,-0.078 h -2.20313 z m 6.89453,4.5 v -8.5938 h 6.20313 v 1.0156 h -5.0625 v 2.625 h 4.75 v 1.0157 h -4.75 v 2.9219 h 5.26562 v 1.0156 z m 7.98828,0 v -8.5938 h 3.8125 q 1.15625,0 1.75,0.2344 0.59375,0.2344 0.95313,0.8281 0.35937,0.5781 0.35937,1.2813 0,0.9218 -0.59375,1.5468 -0.59375,0.625 -1.82812,0.7969 0.45312,0.2188 0.6875,0.4219 0.5,0.4531 0.9375,1.1406 l 1.5,2.3438 h -1.4375 l -1.125,-1.7813 q -0.5,-0.7812 -0.82813,-1.1875 -0.3125,-0.4062 -0.57812,-0.5625 -0.25,-0.1718 -0.51563,-0.25 -0.1875,-0.031 -0.625,-0.031 h -1.32812 v 3.8125 z m 1.14063,-4.7969 h 2.45312 q 0.76563,0 1.20313,-0.1563 0.45312,-0.1718 0.67187,-0.5156 0.23438,-0.3594 0.23438,-0.7812 0,-0.6094 -0.45313,-1 -0.4375,-0.3907 -1.39062,-0.3907 h -2.71875 z m 7.13476,2.0313 1.0625,-0.094 q 0.0781,0.6562 0.35938,1.0625 0.28125,0.4062 0.85937,0.6718 0.59375,0.25 1.32813,0.25 0.64062,0 1.14062,-0.1875 0.5,-0.2031 0.73438,-0.5312 0.25,-0.3438 0.25,-0.7344 0,-0.4062 -0.23438,-0.7031 -0.23437,-0.3125 -0.76562,-0.5156 -0.35938,-0.1407 -1.54688,-0.4219 -1.17187,-0.2813 -1.64062,-0.5313 -0.625,-0.3281 -0.92188,-0.7969 -0.29687,-0.4843 -0.29687,-1.0781 0,-0.6406 0.35937,-1.2031 0.375,-0.5781 1.07813,-0.8594 0.71875,-0.2969 1.57812,-0.2969 0.95313,0 1.6875,0.3125 0.73438,0.2969 1.125,0.9063 0.39063,0.5937 0.42188,1.3437 l -1.09375,0.078 q -0.0937,-0.8125 -0.60938,-1.2187 -0.5,-0.4219 -1.48437,-0.4219 -1.03125,0 -1.5,0.375 -0.46875,0.375 -0.46875,0.9063 0,0.4687 0.32812,0.7656 0.32813,0.2969 1.70313,0.6094 1.39062,0.3125 1.90625,0.5468 0.75,0.3594 1.10937,0.8907 0.35938,0.5156 0.35938,1.2187 0,0.6875 -0.39063,1.2969 -0.39062,0.5938 -1.125,0.9375 -0.73437,0.3281 -1.65625,0.3281 -1.17187,0 -1.96875,-0.3281 -0.78125,-0.3437 -1.23437,-1.0312 -0.4375,-0.6875 -0.45313,-1.5469 z"
       id="path75"
       inkscape:connector-curvature="0"
       style="fill:#000000;fill-rule:nonzero" />
    <path
       d="m 591.5536,1043.7263 h 79.69006 v 36.9256 c -39.8429,0 -39.8429,14.2072 -79.69006,7.1036 z m 6.56549,0 v -4.7872 h 79.14575 v 37.1573 c -3.00842,0 -6.02118,0.2573 -6.02118,0.2573 v -32.6274 z m 6.1712,-4.7872 v -4.6714 h 79.83148 v 37.0415 c -3.42846,0 -6.85693,0.193 -6.85693,0.193 v -32.5631 z"
       id="path77"
       inkscape:connector-curvature="0"
       style="fill:#ffffff;fill-rule:evenodd" />
    <path
       d="m 591.5536,1043.7263 h 79.69006 v 36.9256 c -39.8429,0 -39.8429,14.2072 -79.69006,7.1036 z m 6.56549,0 v -4.7872 h 79.14575 v 37.1573 c -3.00842,0 -6.02118,0.2573 -6.02118,0.2573 m -66.95337,-37.4146 v -4.6714 h 79.83148 v 37.0415 c -3.42847,0 -6.85693,0.193 -6.85693,0.193"
       id="path79"
       inkscape:connector-curvature="0"
       style="fill:#000000;fill-opacity:0;fill-rule:evenodd" />
    <path
       d="m 591.5536,1087.7555 c 39.84717,7.1036 39.84717,-7.1036 79.69006,-7.1036 v -4.2981 c 0,0 3.01276,-0.2574 6.02118,-0.2574 v -4.5942 c 0,0 3.42847,-0.193 6.85693,-0.193 v -37.0415 h -79.83148 v 4.6714 h -6.1712 v 4.7872 h -6.56549 z"
       id="path81"
       inkscape:connector-curvature="0"
       style="fill:#000000;fill-opacity:0;fill-rule:evenodd" />
    <path
       d="m 591.5536,1043.7263 h 79.69006 v 36.9256 c -39.8429,0 -39.8429,14.2072 -79.69006,7.1036 z m 6.56549,0 v -4.7872 h 79.14575 v 37.1573 c -3.00842,0 -6.02118,0.2573 -6.02118,0.2573 m -66.95337,-37.4146 v -4.6714 h 79.83148 v 37.0415 c -3.42847,0 -6.85693,0.193 -6.85693,0.193"
       id="path83"
       inkscape:connector-curvature="0"
       style="fill-rule:evenodd;stroke:#000000;stroke-width:2;stroke-linecap:butt;stroke-linejoin:round" />
    <path
       d="m 601.47546,1070.2609 v -8.5938 h 3.25 q 0.84375,0 1.29687,0.078 0.64063,0.1094 1.0625,0.4063 0.4375,0.2968 0.6875,0.8281 0.26563,0.5312 0.26563,1.1719 0,1.0937 -0.70313,1.8593 -0.6875,0.7501 -2.51562,0.7501 h -2.20313 v 3.5 z m 1.14062,-4.5 h 2.21875 q 1.10938,0 1.5625,-0.4063 0.46875,-0.4219 0.46875,-1.1719 0,-0.5312 -0.28125,-0.9062 -0.26562,-0.3906 -0.70312,-0.5156 -0.29688,-0.078 -1.0625,-0.078 h -2.20313 z m 6.51954,0.3125 q 0,-2.1407 1.14062,-3.3438 1.15625,-1.2187 2.96875,-1.2187 1.20313,0 2.15625,0.5781 0.95313,0.5625 1.45313,1.5781 0.5,1.0156 0.5,2.3125 0,1.2969 -0.53125,2.3282 -0.53125,1.0312 -1.5,1.5625 -0.95313,0.5312 -2.07813,0.5312 -1.21875,0 -2.17187,-0.5781 -0.95313,-0.5938 -1.45313,-1.5938 -0.48437,-1.0156 -0.48437,-2.1562 z m 1.17187,0.016 q 0,1.5625 0.82813,2.4531 0.84375,0.8906 2.10937,0.8906 1.28125,0 2.10938,-0.8906 0.82812,-0.9062 0.82812,-2.5781 0,-1.0469 -0.35937,-1.8282 -0.34375,-0.7812 -1.03125,-1.2031 -0.6875,-0.4375 -1.53125,-0.4375 -1.20313,0 -2.07813,0.8281 -0.875,0.8282 -0.875,2.7657 z m 8.13086,1.4062 1.0625,-0.094 q 0.0781,0.6563 0.35938,1.0625 0.28125,0.4063 0.85937,0.6719 0.59375,0.25 1.32813,0.25 0.64062,0 1.14062,-0.1875 0.5,-0.2031 0.73438,-0.5312 0.25,-0.3438 0.25,-0.7344 0,-0.4063 -0.23438,-0.7031 -0.23437,-0.3125 -0.76562,-0.5157 -0.35938,-0.1406 -1.54688,-0.4219 -1.17187,-0.2812 -1.64062,-0.5312 -0.625,-0.3281 -0.92188,-0.7969 -0.29687,-0.4844 -0.29687,-1.0781 0,-0.6406 0.35937,-1.2031 0.375,-0.5782 1.07813,-0.8594 0.71875,-0.2969 1.57812,-0.2969 0.95313,0 1.6875,0.3125 0.73438,0.2969 1.125,0.9063 0.39063,0.5937 0.42188,1.3437 l -1.09375,0.078 q -0.0937,-0.8125 -0.60938,-1.2187 -0.5,-0.4219 -1.48437,-0.4219 -1.03125,0 -1.5,0.375 -0.46875,0.375 -0.46875,0.9062 0,0.4688 0.32812,0.7657 0.32813,0.2968 1.70313,0.6093 1.39062,0.3125 1.90625,0.5469 0.75,0.3594 1.10937,0.8907 0.35938,0.5156 0.35938,1.2187 0,0.6875 -0.39063,1.2969 -0.39062,0.5937 -1.125,0.9375 -0.73437,0.3281 -1.65625,0.3281 -1.17187,0 -1.96875,-0.3281 -0.78125,-0.3438 -1.23437,-1.0313 -0.4375,-0.6875 -0.45313,-1.5468 z m 10.56641,2.7657 v -7.5782 h -2.82813 v -1.0156 h 6.8125 v 1.0156 h -2.84375 v 7.5782 z m 5.17382,0 v -8.5938 h 6.20313 v 1.0156 h -5.0625 v 2.625 h 4.75 v 1.0156 h -4.75 v 2.9219 h 5.26562 v 1.0157 z m 7.98829,0 v -8.5938 h 3.8125 q 1.15625,0 1.75,0.2344 0.59375,0.2343 0.95312,0.8281 0.35938,0.5781 0.35938,1.2812 0,0.9219 -0.59375,1.5469 -0.59375,0.625 -1.82813,0.7969 0.45313,0.2188 0.6875,0.4219 0.5,0.4531 0.9375,1.1406 l 1.5,2.3438 h -1.4375 l -1.125,-1.7813 q -0.5,-0.7812 -0.82812,-1.1875 -0.3125,-0.4062 -0.57813,-0.5625 -0.25,-0.1719 -0.51562,-0.25 -0.1875,-0.031 -0.625,-0.031 h -1.32813 v 3.8125 z m 1.14062,-4.7969 h 2.45313 q 0.76562,0 1.20312,-0.1563 0.45313,-0.1719 0.67188,-0.5156 0.23437,-0.3594 0.23437,-0.7813 0,-0.6093 -0.45312,-1 -0.4375,-0.3906 -1.39063,-0.3906 h -2.71875 z m 7.13477,2.0312 1.0625,-0.094 q 0.0781,0.6563 0.35937,1.0625 0.28125,0.4063 0.85938,0.6719 0.59375,0.25 1.32812,0.25 0.64063,0 1.14063,-0.1875 0.5,-0.2031 0.73437,-0.5312 0.25,-0.3438 0.25,-0.7344 0,-0.4063 -0.23437,-0.7031 -0.23438,-0.3125 -0.76563,-0.5157 -0.35937,-0.1406 -1.54687,-0.4219 -1.17188,-0.2812 -1.64063,-0.5312 -0.625,-0.3281 -0.92187,-0.7969 -0.29688,-0.4844 -0.29688,-1.0781 0,-0.6406 0.35938,-1.2031 0.375,-0.5782 1.07812,-0.8594 0.71875,-0.2969 1.57813,-0.2969 0.95312,0 1.6875,0.3125 0.73437,0.2969 1.125,0.9063 0.39062,0.5937 0.42187,1.3437 l -1.09375,0.078 q -0.0937,-0.8125 -0.60937,-1.2187 -0.5,-0.4219 -1.48438,-0.4219 -1.03125,0 -1.5,0.375 -0.46875,0.375 -0.46875,0.9062 0,0.4688 0.32813,0.7657 0.32812,0.2968 1.70312,0.6093 1.39063,0.3125 1.90625,0.5469 0.75,0.3594 1.10938,0.8907 0.35937,0.5156 0.35937,1.2187 0,0.6875 -0.39062,1.2969 -0.39063,0.5937 -1.125,0.9375 -0.73438,0.3281 -1.65625,0.3281 -1.17188,0 -1.96875,-0.3281 -0.78125,-0.3438 -1.23438,-1.0313 -0.4375,-0.6875 -0.45312,-1.5468 z"
       id="path85"
       inkscape:connector-curvature="0"
       style="fill:#000000;fill-rule:nonzero" />
    <path
       d="m 568.79944,1014.6142 -26.77167,19.6535"
       id="path87"
       inkscape:connector-curvature="0"
       style="fill:#000000;fill-opacity:0;fill-rule:evenodd" />
    <path
       d="m 568.79944,1014.6142 -21.93506,16.1029"
       id="path89"
       inkscape:connector-curvature="0"
       style="fill-rule:evenodd;stroke:#000000;stroke-width:1;stroke-linecap:butt;stroke-linejoin:round" />
    <path
       d="m 545.8869,1029.3856 -2.68066,4.017 4.63562,-1.3541 z"
       id="path91"
       inkscape:connector-curvature="0"
       style="fill:#000000;fill-rule:evenodd;stroke:#000000;stroke-width:1;stroke-linecap:butt" />
    <path
       d="m 586.74805,1015.1102 57.44879,19.1496"
       id="path93"
       inkscape:connector-curvature="0"
       style="fill:#000000;fill-opacity:0;fill-rule:evenodd" />
    <path
       d="m 586.74805,1015.1102 51.75671,17.2523"
       id="path95"
       inkscape:connector-curvature="0"
       style="fill-rule:evenodd;stroke:#000000;stroke-width:1;stroke-linecap:butt;stroke-linejoin:round" />
    <path
       d="m 637.9824,1033.9294 4.82758,-0.1319 -3.7829,-3.002 z"
       id="path97"
       inkscape:connector-curvature="0"
       style="fill:#000000;fill-rule:evenodd;stroke:#000000;stroke-width:1;stroke-linecap:butt" />
    <path
       d="m 684.09973,724.57133 h 45.51184 v 50.4252"
       id="path99"
       inkscape:connector-curvature="0"
       style="fill:#000000;fill-opacity:0;fill-rule:evenodd" />
    <path
       d="m 684.09973,724.57133 h 45.51184 v 44.42519"
       id="path101"
       inkscape:connector-curvature="0"
       style="fill-rule:evenodd;stroke:#000000;stroke-width:1;stroke-linecap:butt;stroke-linejoin:round" />
    <path
       d="m 727.95984,768.99651 1.65173,4.5381 1.65174,-4.5381 z"
       id="path103"
       inkscape:connector-curvature="0"
       style="fill:#000000;fill-rule:evenodd;stroke:#000000;stroke-width:1;stroke-linecap:butt" />
    <path
       d="m 784.9554,706.23414 h 86.77667 v 36.92564 c -43.38599,0 -43.38599,14.20711 -86.77667,7.10357 z m 7.14935,0 v -4.78718 h 86.18396 v 37.15728 c -3.276,0 -6.55664,0.25737 -6.55664,0.25737 v -32.62747 z m 6.71997,-4.78718 v -4.67136 h 86.93067 v 37.04146 c -3.73334,0 -7.46668,0.19302 -7.46668,0.19302 v -32.56312 z"
       id="path105"
       inkscape:connector-curvature="0"
       style="fill:#ffffff;fill-rule:evenodd" />
    <path
       d="m 784.9554,706.23414 h 86.77667 v 36.92564 c -43.38599,0 -43.38599,14.20711 -86.77667,7.10357 z m 7.14935,0 v -4.78718 h 86.18396 v 37.15728 c -3.276,0 -6.55664,0.25737 -6.55664,0.25737 m -72.90735,-37.41465 v -4.67136 h 86.93067 v 37.04146 c -3.73334,0 -7.46668,0.19302 -7.46668,0.19302"
       id="path107"
       inkscape:connector-curvature="0"
       style="fill:#000000;fill-opacity:0;fill-rule:evenodd" />
    <path
       d="m 784.9554,750.26334 c 43.39069,7.10355 43.39069,-7.10356 86.77667,-7.10356 v -4.29817 c 0,0 3.28064,-0.25737 6.55664,-0.25737 v -4.59417 c 0,0 3.73334,-0.19302 7.46668,-0.19302 v -37.04146 h -86.93067 v 4.67136 h -6.71997 v 4.78718 h -7.14935 z"
       id="path109"
       inkscape:connector-curvature="0"
       style="fill:#000000;fill-opacity:0;fill-rule:evenodd" />
    <path
       inkscape:connector-curvature="0"
       id="path111"
       d="m 798.82422,695.77555 a 1.0001,1.0001 0 0 0 -1,1 v 3.67187 h -5.71875 a 1.0001,1.0001 0 0 0 -1,1 v 3.78711 h -6.15039 a 1.0001,1.0001 0 0 0 -1,1 v 44.0293 a 1.0001,1.0001 0 0 0 0.83789,0.98633 c 21.80023,3.56894 32.89394,1.77181 43.79101,-0.9043 10.89708,-2.67611 21.5646,-6.18555 43.14844,-6.18555 a 1.0001,1.0001 0 0 0 1,-1 v -3.33789 c 0.7374,-0.0532 2.79171,-0.21875 5.55664,-0.21875 a 1.0001,1.0001 0 0 0 1,-1 v -3.62109 c 0.77623,-0.0373 3.24138,-0.16601 6.4668,-0.16601 a 1.0001,1.0001 0 0 0 1,-1 v -37.04102 a 1.0001,1.0001 0 0 0 -1,-1 z m 1,2 h 84.93164 v 35.06641 c -2.68791,0.0326 -4.75653,0.10855 -5.4668,0.14257 v -31.53711 a 1.0001,1.0001 0 0 0 -1,-1 h -78.46484 z m -6.71875,4.67187 h 84.18359 v 35.19532 c -2.23009,0.0458 -3.87819,0.131 -4.55664,0.17968 v -31.58789 a 1.0001,1.0001 0 0 0 -1,-1 h -78.62695 z m -7.15039,4.78711 h 84.77734 v 34.9668 c -21.06396,0.12046 -32.01411,3.5973 -42.625,6.20313 -10.639,2.61273 -21.19274,4.30378 -42.15234,0.97265 z"
       style="color:#000000;font-style:normal;font-variant:normal;font-weight:normal;font-stretch:normal;font-size:medium;line-height:normal;font-family:sans-serif;font-variant-ligatures:normal;font-variant-position:normal;font-variant-caps:normal;font-variant-numeric:normal;font-variant-alternates:normal;font-feature-settings:normal;text-indent:0;text-align:start;text-decoration:none;text-decoration-line:none;text-decoration-style:solid;text-decoration-color:#000000;letter-spacing:normal;word-spacing:normal;text-transform:none;writing-mode:lr-tb;direction:ltr;text-orientation:mixed;dominant-baseline:auto;baseline-shift:baseline;text-anchor:start;white-space:normal;shape-padding:0;clip-rule:nonzero;display:inline;overflow:visible;visibility:visible;opacity:1;isolation:auto;mix-blend-mode:normal;color-interpolation:sRGB;color-interpolation-filters:linearRGB;solid-color:#000000;solid-opacity:1;vector-effect:none;fill:#999999;fill-opacity:1;fill-rule:evenodd;stroke:none;stroke-width:2;stroke-linecap:butt;stroke-linejoin:round;stroke-miterlimit:10;stroke-dasharray:none;stroke-dashoffset:0;stroke-opacity:1;color-rendering:auto;image-rendering:auto;shape-rendering:auto;text-rendering:auto;enable-background:accumulate" />
    <path
       d="m 794.73663,731.98873 v -7.625 h 1.01562 v 6.71875 h 3.75 v 0.90625 z m 6.14526,0 v -7.625 h 1 v 7.625 z m 4.72626,0 v -6.73438 h -2.51562 v -0.89062 h 6.04687 v 0.89062 h -2.53125 v 6.73438 z m 4.5874,0 v -7.625 h 5.51563 v 0.89062 h -4.5 v 2.34375 h 4.21875 v 0.89063 h -4.21875 v 2.59375 h 4.67187 v 0.90625 z m 7.10761,0 v -7.625 h 3.375 q 1.01562,0 1.54687,0.20312 0.53125,0.20313 0.84375,0.73438 0.32813,0.51562 0.32813,1.14062 0,0.8125 -0.53125,1.375 -0.51563,0.54688 -1.625,0.70313 0.40625,0.1875 0.60937,0.375 0.45313,0.40625 0.84375,1.01562 l 1.32813,2.07813 h -1.26563 l -1.01562,-1.59375 q -0.4375,-0.6875 -0.73438,-1.04688 -0.28125,-0.35937 -0.51562,-0.5 -0.21875,-0.15625 -0.45313,-0.20312 -0.17187,-0.0469 -0.5625,-0.0469 h -1.17187 v 3.39063 z m 1,-4.26563 h 2.17187 q 0.6875,0 1.07813,-0.14062 0.39062,-0.14063 0.59375,-0.45313 0.20312,-0.3125 0.20312,-0.6875 0,-0.54687 -0.39062,-0.89062 -0.39063,-0.34375 -1.23438,-0.34375 h -2.42187 z m 5.83624,4.26563 2.92188,-7.625 h 1.09375 l 3.125,7.625 h -1.15625 l -0.89063,-2.3125 h -3.1875 l -0.82812,2.3125 z m 2.20313,-3.125 h 2.57812 l -0.79687,-2.125 q -0.35938,-0.95313 -0.53125,-1.57813 -0.15625,0.73438 -0.42188,1.45313 z m 6.8941,3.125 v -6.73438 H 830.721 v -0.89062 h 6.04688 v 0.89062 h -2.53125 v 6.73438 z m 9.57172,-7.625 h 1.01562 v 4.40625 q 0,1.14062 -0.26562,1.82812 -0.26563,0.67188 -0.95313,1.09375 -0.67187,0.42188 -1.76562,0.42188 -1.07813,0 -1.76563,-0.35938 -0.67187,-0.375 -0.96875,-1.07812 -0.28125,-0.70313 -0.28125,-1.90625 v -4.40625 h 1 v 4.40625 q 0,0.98437 0.1875,1.45312 0.1875,0.46875 0.625,0.73438 0.45313,0.25 1.10938,0.25 1.10937,0 1.57812,-0.5 0.48438,-0.51563 0.48438,-1.9375 z m 2.71124,7.625 v -7.625 h 3.375 q 1.01562,0 1.54687,0.20312 0.53125,0.20313 0.84375,0.73438 0.32813,0.51562 0.32813,1.14062 0,0.8125 -0.53125,1.375 -0.51563,0.54688 -1.625,0.70313 0.40625,0.1875 0.60937,0.375 0.45313,0.40625 0.84375,1.01562 l 1.32813,2.07813 h -1.26563 l -1.01562,-1.59375 q -0.4375,-0.6875 -0.73438,-1.04688 -0.28125,-0.35937 -0.51562,-0.5 -0.21875,-0.15625 -0.45313,-0.20312 -0.17187,-0.0469 -0.5625,-0.0469 h -1.17187 v 3.39063 z m 1,-4.26563 h 2.17187 q 0.6875,0 1.07813,-0.14062 0.39062,-0.14063 0.59375,-0.45313 0.20312,-0.3125 0.20312,-0.6875 0,-0.54687 -0.39062,-0.89062 -0.39063,-0.34375 -1.23438,-0.34375 h -2.42187 z m 6.69562,4.26563 v -7.625 h 5.51562 v 0.89062 h -4.5 v 2.34375 h 4.21875 v 0.89063 h -4.21875 v 2.59375 h 4.67188 v 0.90625 z"
       id="path113"
       inkscape:connector-curvature="0"
       style="fill:#000000;fill-rule:nonzero" />
    <path
       d="M 828.34607,750.26334 807.8421,773.19246"
       id="path115"
       inkscape:connector-curvature="0"
       style="fill:#000000;fill-opacity:0;fill-rule:evenodd" />
    <path
       d="M 828.34607,750.26333 811.84161,768.7199"
       id="path117"
       inkscape:connector-curvature="0"
       style="fill-rule:evenodd;stroke:#000000;stroke-width:1;stroke-linecap:butt;stroke-linejoin:round" />
    <path
       d="m 810.61035,767.61887 -1.79376,4.48386 4.25628,-2.28182 z"
       id="path119"
       inkscape:connector-curvature="0"
       style="fill:#000000;fill-rule:evenodd;stroke:#000000;stroke-width:1;stroke-linecap:butt" />
    <path
       d="m 768.9076,838.09709 v 60.504 h -84.81891"
       id="path121"
       inkscape:connector-curvature="0"
       style="fill:#000000;fill-opacity:0;fill-rule:evenodd" />
    <path
       d="m 768.90765,838.09709 v 60.504 h -78.81897"
       id="path123"
       inkscape:connector-curvature="0"
       style="fill-rule:evenodd;stroke:#000000;stroke-width:1;stroke-linecap:butt;stroke-linejoin:round" />
    <path
       d="m 690.0887,896.94929 -4.53809,1.6518 4.53809,1.6517 z"
       id="path125"
       inkscape:connector-curvature="0"
       style="fill:#000000;fill-rule:evenodd;stroke:#000000;stroke-width:1;stroke-linecap:butt" />
    <path
       d="m 693.73206,1043.7263 h 79.69006 v 36.9256 c -39.8429,0 -39.8429,14.2072 -79.69006,7.1036 z m 6.56549,0 v -4.7872 h 79.14581 v 37.1573 c -3.00848,0 -6.02124,0.2573 -6.02124,0.2573 v -32.6274 z m 6.1712,-4.7872 v -4.6714 h 79.83148 v 37.0415 c -3.42846,0 -6.85687,0.193 -6.85687,0.193 v -32.5631 z"
       id="path127"
       inkscape:connector-curvature="0"
       style="fill:#ffffff;fill-rule:evenodd" />
    <path
       d="m 693.73206,1043.7263 h 79.69006 v 36.9256 c -39.8429,0 -39.8429,14.2072 -79.69006,7.1036 z m 6.56549,0 v -4.7872 h 79.14581 v 37.1573 c -3.00848,0 -6.02124,0.2573 -6.02124,0.2573 m -66.95337,-37.4146 v -4.6714 h 79.83148 v 37.0415 c -3.42847,0 -6.85687,0.193 -6.85687,0.193"
       id="path129"
       inkscape:connector-curvature="0"
       style="fill:#000000;fill-opacity:0;fill-rule:evenodd" />
    <path
       d="m 693.73206,1087.7555 c 39.84717,7.1036 39.84717,-7.1036 79.69006,-7.1036 v -4.2981 c 0,0 3.01276,-0.2574 6.02124,-0.2574 v -4.5942 c 0,0 3.42841,-0.193 6.85687,-0.193 v -37.0415 h -79.83148 v 4.6714 h -6.1712 v 4.7872 h -6.56549 z"
       id="path131"
       inkscape:connector-curvature="0"
       style="fill:#000000;fill-opacity:0;fill-rule:evenodd" />
    <path
       d="m 693.73206,1043.7263 h 79.69006 v 36.9256 c -39.8429,0 -39.8429,14.2072 -79.69006,7.1036 z m 6.56549,0 v -4.7872 h 79.14581 v 37.1573 c -3.00848,0 -6.02124,0.2573 -6.02124,0.2573 m -66.95337,-37.4146 v -4.6714 h 79.83148 v 37.0415 c -3.42847,0 -6.85687,0.193 -6.85687,0.193"
       id="path133"
       inkscape:connector-curvature="0"
       style="fill-rule:evenodd;stroke:#000000;stroke-width:2;stroke-linecap:butt;stroke-linejoin:round" />
    <path
       d="m 703.71643,1070.2609 v -8.5938 h 5.79687 v 1.0156 h -4.65625 v 2.6563 h 4.03125 v 1.0156 h -4.03125 v 3.9063 z m 7.4707,0 v -8.5938 h 1.125 v 8.5938 z m 7.16211,-3.375 v -1 l 3.625,-0.016 v 3.1875 q -0.82812,0.6719 -1.71875,1.0156 -0.89062,0.3281 -1.82812,0.3281 -1.26563,0 -2.3125,-0.5312 -1.03125,-0.5469 -1.5625,-1.5625 -0.51563,-1.0313 -0.51563,-2.2969 0,-1.2656 0.51563,-2.3438 0.53125,-1.0937 1.51562,-1.6093 0.98438,-0.5313 2.26563,-0.5313 0.9375,0 1.6875,0.2969 0.75,0.2969 1.17187,0.8437 0.4375,0.5313 0.65625,1.4063 l -1.01562,0.2812 q -0.20313,-0.6562 -0.5,-1.0312 -0.28125,-0.375 -0.8125,-0.5938 -0.53125,-0.2343 -1.17188,-0.2343 -0.78125,0 -1.35937,0.2343 -0.5625,0.2344 -0.92188,0.625 -0.34375,0.3907 -0.53125,0.8594 -0.32812,0.7969 -0.32812,1.7188 0,1.1562 0.39062,1.9375 0.40625,0.7656 1.15625,1.1406 0.75,0.375 1.60938,0.375 0.73437,0 1.4375,-0.2812 0.70312,-0.2969 1.0625,-0.6094 v -1.6094 z m 10.94336,-5.2188 h 1.14063 v 4.9688 q 0,1.2969 -0.29688,2.0625 -0.29687,0.75 -1.0625,1.2344 -0.76562,0.4687 -2,0.4687 -1.20312,0 -1.98437,-0.4062 -0.76563,-0.4219 -1.09375,-1.2032 -0.32813,-0.7968 -0.32813,-2.1562 v -4.9688 h 1.14063 v 4.9532 q 0,1.125 0.20312,1.6562 0.21875,0.5313 0.71875,0.8281 0.51563,0.2813 1.25,0.2813 1.25,0 1.78125,-0.5625 0.53125,-0.5781 0.53125,-2.2031 z m 3.04102,8.5938 v -8.5938 h 3.8125 q 1.15625,0 1.75,0.2344 0.59375,0.2344 0.95312,0.8281 0.35938,0.5781 0.35938,1.2813 0,0.9218 -0.59375,1.5468 -0.59375,0.625 -1.82813,0.7969 0.45313,0.2188 0.6875,0.4219 0.5,0.4531 0.9375,1.1406 l 1.5,2.3438 h -1.4375 l -1.125,-1.7813 q -0.5,-0.7812 -0.82812,-1.1875 -0.3125,-0.4062 -0.57813,-0.5625 -0.25,-0.1718 -0.51562,-0.25 -0.1875,-0.031 -0.625,-0.031 h -1.32813 v 3.8125 z m 1.14062,-4.7969 h 2.45313 q 0.76562,0 1.20312,-0.1563 0.45313,-0.1718 0.67188,-0.5156 0.23437,-0.3594 0.23437,-0.7812 0,-0.6094 -0.45312,-1 -0.4375,-0.3907 -1.39063,-0.3907 h -2.71875 z m 7.54102,4.7969 v -8.5938 h 6.20312 v 1.0156 h -5.0625 v 2.625 h 4.75 v 1.0157 h -4.75 v 2.9219 h 5.26563 v 1.0156 z m 7.59765,-2.7656 1.0625,-0.094 q 0.0781,0.6562 0.35938,1.0625 0.28125,0.4062 0.85937,0.6718 0.59375,0.25 1.32813,0.25 0.64062,0 1.14062,-0.1875 0.5,-0.2031 0.73438,-0.5312 0.25,-0.3438 0.25,-0.7344 0,-0.4062 -0.23438,-0.7031 -0.23437,-0.3125 -0.76562,-0.5156 -0.35938,-0.1407 -1.54688,-0.4219 -1.17187,-0.2813 -1.64062,-0.5313 -0.625,-0.3281 -0.92188,-0.7969 -0.29687,-0.4843 -0.29687,-1.0781 0,-0.6406 0.35937,-1.2031 0.375,-0.5781 1.07813,-0.8594 0.71875,-0.2969 1.57812,-0.2969 0.95313,0 1.6875,0.3125 0.73438,0.2969 1.125,0.9063 0.39063,0.5937 0.42188,1.3437 l -1.09375,0.078 q -0.0937,-0.8125 -0.60938,-1.2187 -0.5,-0.4219 -1.48437,-0.4219 -1.03125,0 -1.5,0.375 -0.46875,0.375 -0.46875,0.9063 0,0.4687 0.32812,0.7656 0.32813,0.2969 1.70313,0.6094 1.39062,0.3125 1.90625,0.5468 0.75,0.3594 1.10937,0.8907 0.35938,0.5156 0.35938,1.2187 0,0.6875 -0.39063,1.2969 -0.39062,0.5938 -1.125,0.9375 -0.73437,0.3281 -1.65625,0.3281 -1.17187,0 -1.96875,-0.3281 -0.78125,-0.3437 -1.23437,-1.0312 -0.4375,-0.6875 -0.45313,-1.5469 z"
       id="path135"
       inkscape:connector-curvature="0"
       style="fill:#000000;fill-rule:nonzero" />
    <path
       d="m 586.74805,1015.1102 159.62201,19.1496"
       id="path137"
       inkscape:connector-curvature="0"
       style="fill:#000000;fill-opacity:0;fill-rule:evenodd" />
    <path
       d="m 586.74805,1015.1102 153.6648,18.435"
       id="path139"
       inkscape:connector-curvature="0"
       style="fill-rule:evenodd;stroke:#000000;stroke-width:1;stroke-linecap:butt;stroke-linejoin:round" />
    <path
       d="m 740.21606,1035.1851 4.70251,-1.0994 -4.30902,-2.1805 z"
       id="path141"
       inkscape:connector-curvature="0"
       style="fill:#000000;fill-rule:evenodd;stroke:#000000;stroke-width:1;stroke-linecap:butt" />
    <path
       d="m 664.6472,982.65749 h 46.04053 v -84.063 H 684.1118"
       id="path143"
       inkscape:connector-curvature="0"
       style="fill:#000000;fill-opacity:0;fill-rule:evenodd" />
    <path
       d="m 664.6472,982.65749 h 46.04053 v -84.063 H 690.1118"
       id="path145"
       inkscape:connector-curvature="0"
       style="fill-rule:evenodd;stroke:#000000;stroke-width:1;stroke-linecap:butt;stroke-linejoin:round" />
    <path
       d="m 690.1118,896.94279 -4.53815,1.6517 4.53815,1.6517 z"
       id="path147"
       inkscape:connector-curvature="0"
       style="fill:#000000;fill-rule:evenodd;stroke:#000000;stroke-width:1;stroke-linecap:butt" />
  </g>
</svg>
